M48
; DRILL file {KiCad (5.1.4-0-10_14)} date Saturday, October 26, 2019 at 09:01:24 PM
; FORMAT={-:-/ absolute / inch / decimal}
; #@! TF.CreationDate,2019-10-26T21:01:24-04:00
; #@! TF.GenerationSoftware,Kicad,Pcbnew,(5.1.4-0-10_14)
; #@! TF.FileFunction,Plated,1,2,PTH
FMAT,2
INCH
T1C0.0157
T2C0.0276
T3C0.0295
T4C0.0315
T5C0.0394
%
G90
G05
T1
X3.388Y-4.324
X3.6368Y-4.74
X3.705Y-3.117
X3.89Y-3.545
X4.405Y-3.117
X4.406Y-3.167
X4.506Y-3.167
X4.644Y-4.36
X4.672Y-5.226
X4.712Y-3.117
X4.8165Y-5.3565
X4.91Y-3.54
X4.93Y-4.4
X4.965Y-4.46
X5.072Y-5.095
X5.157Y-5.095
X5.466Y-3.117
X5.466Y-3.167
X5.581Y-3.167
X5.6734Y-4.4
X5.7234Y-4.74
X5.77Y-3.117
X5.97Y-3.535
X6.379Y-4.36
X6.492Y-3.117
X6.492Y-3.167
X6.606Y-3.166
X6.659Y-4.36
X6.709Y-5.207
X6.802Y-3.117
X6.995Y-3.54
X7.05Y-4.4
X7.05Y-4.46
X7.156Y-5.084
X7.231Y-5.083
X7.35Y-5.3994
X7.553Y-3.117
X7.553Y-3.166
X7.679Y-3.166
X7.76Y-4.4
X7.81Y-4.74
X7.885Y-3.116
X8.05Y-3.535
X8.2Y-4.36
X8.58Y-3.116
X8.58Y-3.166
X8.6385Y-5.2575
X9.08Y-3.545
X9.085Y-4.4
X9.105Y-4.3
X9.14Y-4.19
X9.547Y-4.8905
X9.72Y-4.934
X9.793Y-4.9335
T2
X3.775Y-2.925
X4.075Y-2.925
X8.53Y-2.94
X8.83Y-2.94
X4.539Y-4.6
X4.539Y-4.9
X7.1Y-3.425
X7.1Y-3.725
X8.14Y-3.425
X8.14Y-3.725
X4.355Y-2.925
X4.655Y-2.925
X9.2Y-3.425
X9.2Y-3.725
X5.015Y-3.425
X5.015Y-3.725
X3.97Y-3.425
X3.97Y-3.725
X6.625Y-4.6
X6.625Y-4.9
X7.5Y-2.925
X7.8Y-2.925
X6.44Y-2.925
X6.74Y-2.925
X5.415Y-2.925
X5.715Y-2.925
X6.055Y-3.425
X6.055Y-3.725
X3.19Y-4.445
X3.19Y-4.745
T3
X9.28Y-4.58
X9.28Y-4.88
T4
X3.6468Y-4.54
X3.6468Y-4.94
X3.7468Y-4.54
X3.7468Y-4.94
X3.8468Y-4.54
X3.8468Y-4.94
X3.9468Y-4.54
X3.9468Y-4.94
X4.0468Y-4.54
X4.0468Y-4.94
X4.1468Y-4.54
X4.1468Y-4.94
X4.2468Y-4.54
X4.2468Y-4.94
X4.3468Y-4.54
X4.3468Y-4.94
X6.2423Y-3.74
X6.2423Y-4.14
X6.3423Y-3.74
X6.3423Y-4.14
X6.4423Y-3.74
X6.4423Y-4.14
X6.5423Y-3.74
X6.5423Y-4.14
X6.6423Y-3.74
X6.6423Y-4.14
X6.7423Y-3.74
X6.7423Y-4.14
X6.8423Y-3.74
X5.8173Y-4.14
X5.2173Y-3.74
X5.3173Y-3.74
X5.4173Y-3.74
X5.7173Y-4.14
X5.9173Y-4.14
X6.8423Y-4.14
X5.2173Y-4.14
X5.3173Y-4.14
X5.4173Y-4.14
X5.5173Y-3.74
X5.5173Y-4.14
X5.6173Y-3.74
X5.6173Y-4.14
X5.7173Y-3.74
X5.8173Y-3.74
X5.9173Y-3.74
X6.9423Y-3.74
X6.9423Y-4.14
X7.82Y-4.54
X7.82Y-4.94
X7.3039Y-3.74
X7.3039Y-4.14
X7.4039Y-3.74
X7.4039Y-4.14
X7.5039Y-3.74
X3.1307Y-3.74
X3.1307Y-4.14
X3.2307Y-3.74
X3.2307Y-4.14
X3.3307Y-3.74
X3.3307Y-4.14
X3.4307Y-3.74
X3.4307Y-4.14
X3.5307Y-3.74
X3.5307Y-4.14
X3.6307Y-3.74
X3.6307Y-4.14
X3.7307Y-3.74
X3.7307Y-4.14
X3.8307Y-3.74
X3.8307Y-4.14
X7.5039Y-4.14
X7.6039Y-3.74
X7.6039Y-4.14
X7.7039Y-3.74
X7.7039Y-4.14
X7.8039Y-3.74
X7.8039Y-4.14
X7.92Y-4.54
X7.92Y-4.94
X8.02Y-4.54
X8.02Y-4.94
X8.12Y-4.54
X8.12Y-4.94
X8.22Y-4.54
X8.22Y-4.94
X8.32Y-4.54
X8.32Y-4.94
X8.42Y-4.54
X8.42Y-4.94
X8.52Y-4.54
X8.52Y-4.94
X5.7334Y-4.54
X5.7334Y-4.94
X5.8334Y-4.54
X5.8334Y-4.94
X5.9334Y-4.54
X5.9334Y-4.94
X6.0334Y-4.54
X8.7289Y-3.74
X6.3334Y-4.94
X6.4334Y-4.94
X8.9289Y-3.74
X6.0334Y-4.94
X6.1334Y-4.54
X6.1334Y-4.94
X6.2334Y-4.54
X6.2334Y-4.94
X7.9039Y-3.74
X7.9039Y-4.14
X8.0039Y-3.74
X8.0039Y-4.14
X8.3289Y-3.74
X8.3289Y-4.14
X8.4289Y-3.74
X8.5289Y-3.74
X8.5289Y-4.14
X8.6289Y-3.74
X8.6289Y-4.14
X8.7289Y-4.14
X8.8289Y-3.74
X8.8289Y-4.14
X8.9289Y-4.14
X9.0289Y-3.74
X9.0289Y-4.14
X6.4334Y-4.54
X8.4289Y-4.14
X6.3334Y-4.54
X4.1557Y-3.74
X4.1557Y-4.14
X4.2557Y-3.74
X4.2557Y-4.14
X4.3557Y-3.74
X4.3557Y-4.14
X4.4557Y-3.74
X4.4557Y-4.14
X4.5557Y-3.74
X4.5557Y-4.14
X4.6557Y-3.74
X4.6557Y-4.14
X4.7557Y-3.74
X4.7557Y-4.14
X4.8557Y-3.74
X4.8557Y-4.14
T5
X8.3289Y-3.3
X8.3289Y-3.4
X8.4289Y-3.3
X8.4289Y-3.4
X8.5289Y-3.3
X8.5289Y-3.4
X8.6289Y-3.3
X8.6289Y-3.4
X8.7289Y-3.3
X8.7289Y-3.4
X8.8289Y-3.3
X4.3557Y-3.3
X8.8289Y-3.4
X4.1557Y-3.3
X4.1557Y-3.4
X4.2557Y-3.3
X4.2557Y-3.4
X4.3557Y-3.4
X4.4557Y-3.3
X4.4557Y-3.4
X4.5557Y-3.3
X4.5557Y-3.4
X4.6557Y-3.3
X4.6557Y-3.4
X4.7557Y-3.3
X4.7557Y-3.4
X4.8557Y-3.3
X4.8557Y-3.4
X8.9289Y-3.3
X8.9289Y-3.4
X9.0289Y-3.3
X9.0289Y-3.4
X4.79Y-4.9
X3.243Y-4.88
X3.143Y-4.88
X4.89Y-4.9
X10.744Y-4.6221
X10.7656Y-3.6576
X10.844Y-4.6221
X10.8656Y-3.6576
X10.944Y-4.6221
X5.2173Y-3.3
X5.2173Y-3.4
X5.3173Y-3.3
X5.3173Y-3.4
X5.4173Y-3.3
X5.4173Y-3.4
X5.5173Y-3.3
X8.785Y-4.53
X8.785Y-5.13
X9.145Y-4.53
X5.5173Y-3.4
X5.6173Y-3.3
X5.6173Y-3.4
X5.7173Y-3.3
X5.8173Y-3.4
X9.145Y-5.13
X5.7173Y-3.4
X5.9173Y-3.3
X6.876Y-4.9
X5.8173Y-3.3
X5.9173Y-3.4
X6.976Y-4.9
X6.2423Y-3.3
X6.2423Y-3.4
X6.3423Y-3.3
X6.3423Y-3.4
X6.4423Y-3.3
X6.4423Y-3.4
X6.5423Y-3.3
X6.5423Y-3.4
X6.6423Y-3.3
X6.6423Y-3.4
X6.7423Y-3.3
X6.7423Y-3.4
X6.8423Y-3.3
X6.8423Y-3.4
X6.9423Y-3.3
X6.9423Y-3.4
X3.1307Y-3.3
X3.1307Y-3.4
X3.2307Y-3.3
X3.2307Y-3.4
X3.3307Y-3.3
X3.3307Y-3.4
X3.4307Y-3.3
X3.4307Y-3.4
X3.5307Y-3.3
X3.5307Y-3.4
X3.6307Y-3.3
X3.6307Y-3.4
X3.7307Y-3.3
X3.7307Y-3.4
X7.6039Y-3.3
X7.3039Y-3.3
X7.3039Y-3.4
X7.4039Y-3.3
X7.4039Y-3.4
X7.5039Y-3.3
X7.5039Y-3.4
X7.6039Y-3.4
X7.7039Y-3.3
X7.7039Y-3.4
X3.8307Y-3.3
X3.8307Y-3.4
X7.8039Y-3.3
X7.8039Y-3.4
X7.9039Y-3.3
X7.9039Y-3.4
X8.0039Y-3.3
X8.0039Y-3.4
X9.46Y-3.49
X9.46Y-3.59
X9.46Y-3.69
X9.46Y-3.79
X9.46Y-3.89
X9.46Y-3.99
X9.46Y-4.09
X9.46Y-4.19
X9.46Y-4.29
X9.46Y-4.39
X9.46Y-4.49
X9.46Y-4.59
X9.46Y-4.69
X9.46Y-4.79
X9.46Y-4.89
X10.36Y-3.49
X10.36Y-3.59
X10.36Y-3.69
X10.36Y-3.79
X10.36Y-3.89
X10.36Y-3.99
X10.36Y-4.09
X10.36Y-4.19
X10.36Y-4.29
X10.36Y-4.39
X10.36Y-4.49
X10.36Y-4.59
X10.36Y-4.69
X10.36Y-4.79
X10.36Y-4.89
T0
M30
