G04 #@! TF.GenerationSoftware,KiCad,Pcbnew,(5.1.4)-1*
G04 #@! TF.CreationDate,2019-10-18T17:10:18-04:00*
G04 #@! TF.ProjectId,NixieClock,4e697869-6543-46c6-9f63-6b2e6b696361,rev?*
G04 #@! TF.SameCoordinates,Original*
G04 #@! TF.FileFunction,Legend,Top*
G04 #@! TF.FilePolarity,Positive*
%FSLAX46Y46*%
G04 Gerber Fmt 4.6, Leading zero omitted, Abs format (unit mm)*
G04 Created by KiCad (PCBNEW (5.1.4)-1) date 2019-10-18 17:10:18*
%MOMM*%
%LPD*%
G04 APERTURE LIST*
%ADD10C,0.120000*%
%ADD11C,0.150000*%
G04 APERTURE END LIST*
D10*
X91298000Y-119396000D02*
G75*
G02X91298000Y-121396000I0J-1000000D01*
G01*
X91298000Y-121396000D02*
X91298000Y-123631000D01*
X91298000Y-123631000D02*
X111738000Y-123631000D01*
X111738000Y-123631000D02*
X111738000Y-117161000D01*
X111738000Y-117161000D02*
X91298000Y-117161000D01*
X91298000Y-117161000D02*
X91298000Y-119396000D01*
X144298000Y-119396000D02*
G75*
G02X144298000Y-121396000I0J-1000000D01*
G01*
X144298000Y-121396000D02*
X144298000Y-123631000D01*
X144298000Y-123631000D02*
X164738000Y-123631000D01*
X164738000Y-123631000D02*
X164738000Y-117161000D01*
X164738000Y-117161000D02*
X144298000Y-117161000D01*
X144298000Y-117161000D02*
X144298000Y-119396000D01*
X98630000Y-87690000D02*
X98630000Y-82490000D01*
X80790000Y-87690000D02*
X98630000Y-87690000D01*
X78190000Y-82490000D02*
X98630000Y-82490000D01*
X80790000Y-87690000D02*
X80790000Y-85090000D01*
X80790000Y-85090000D02*
X78190000Y-85090000D01*
X78190000Y-85090000D02*
X78190000Y-82490000D01*
X79520000Y-87690000D02*
X78190000Y-87690000D01*
X78190000Y-87690000D02*
X78190000Y-86360000D01*
X151630000Y-87690000D02*
X151630000Y-82490000D01*
X133790000Y-87690000D02*
X151630000Y-87690000D01*
X131190000Y-82490000D02*
X151630000Y-82490000D01*
X133790000Y-87690000D02*
X133790000Y-85090000D01*
X133790000Y-85090000D02*
X131190000Y-85090000D01*
X131190000Y-85090000D02*
X131190000Y-82490000D01*
X132520000Y-87690000D02*
X131190000Y-87690000D01*
X131190000Y-87690000D02*
X131190000Y-86360000D01*
X104225000Y-87690000D02*
X104225000Y-86360000D01*
X105555000Y-87690000D02*
X104225000Y-87690000D01*
X104225000Y-85090000D02*
X104225000Y-82490000D01*
X106825000Y-85090000D02*
X104225000Y-85090000D01*
X106825000Y-87690000D02*
X106825000Y-85090000D01*
X104225000Y-82490000D02*
X124665000Y-82490000D01*
X106825000Y-87690000D02*
X124665000Y-87690000D01*
X124665000Y-87690000D02*
X124665000Y-82490000D01*
X157225000Y-87690000D02*
X157225000Y-86360000D01*
X158555000Y-87690000D02*
X157225000Y-87690000D01*
X157225000Y-85090000D02*
X157225000Y-82490000D01*
X159825000Y-85090000D02*
X157225000Y-85090000D01*
X159825000Y-87690000D02*
X159825000Y-85090000D01*
X157225000Y-82490000D02*
X177665000Y-82490000D01*
X159825000Y-87690000D02*
X177665000Y-87690000D01*
X177665000Y-87690000D02*
X177665000Y-82490000D01*
X78190000Y-96841000D02*
X78190000Y-99076000D01*
X98630000Y-96841000D02*
X78190000Y-96841000D01*
X98630000Y-103311000D02*
X98630000Y-96841000D01*
X78190000Y-103311000D02*
X98630000Y-103311000D01*
X78190000Y-101076000D02*
X78190000Y-103311000D01*
X78190000Y-99076000D02*
G75*
G02X78190000Y-101076000I0J-1000000D01*
G01*
X131190000Y-96841000D02*
X131190000Y-99076000D01*
X151630000Y-96841000D02*
X131190000Y-96841000D01*
X151630000Y-103311000D02*
X151630000Y-96841000D01*
X131190000Y-103311000D02*
X151630000Y-103311000D01*
X131190000Y-101076000D02*
X131190000Y-103311000D01*
X131190000Y-99076000D02*
G75*
G02X131190000Y-101076000I0J-1000000D01*
G01*
X104225000Y-99076000D02*
G75*
G02X104225000Y-101076000I0J-1000000D01*
G01*
X104225000Y-101076000D02*
X104225000Y-103311000D01*
X104225000Y-103311000D02*
X124665000Y-103311000D01*
X124665000Y-103311000D02*
X124665000Y-96841000D01*
X124665000Y-96841000D02*
X104225000Y-96841000D01*
X104225000Y-96841000D02*
X104225000Y-99076000D01*
X157225000Y-99076000D02*
G75*
G02X157225000Y-101076000I0J-1000000D01*
G01*
X157225000Y-101076000D02*
X157225000Y-103311000D01*
X157225000Y-103311000D02*
X177665000Y-103311000D01*
X177665000Y-103311000D02*
X177665000Y-96841000D01*
X177665000Y-96841000D02*
X157225000Y-96841000D01*
X157225000Y-96841000D02*
X157225000Y-99076000D01*
X235228000Y-118355999D02*
X235228000Y-126975999D01*
X235588000Y-118355999D02*
X235228000Y-118355999D01*
X235588000Y-109736000D02*
X235588000Y-118355999D01*
X235228000Y-109736000D02*
X235588000Y-109736000D01*
X235228000Y-101116000D02*
X235228000Y-109736000D01*
X273788000Y-101116001D02*
X235228000Y-101116000D01*
X273788000Y-126976000D02*
X273788000Y-101116001D01*
X235228000Y-126975999D02*
X273788000Y-126976000D01*
X184190000Y-99076000D02*
G75*
G02X184190000Y-101076000I0J-1000000D01*
G01*
X184190000Y-101076000D02*
X184190000Y-103311000D01*
X184190000Y-103311000D02*
X204630000Y-103311000D01*
X204630000Y-103311000D02*
X204630000Y-96841000D01*
X204630000Y-96841000D02*
X184190000Y-96841000D01*
X184190000Y-96841000D02*
X184190000Y-99076000D01*
X210225000Y-96841000D02*
X210225000Y-99076000D01*
X230665000Y-96841000D02*
X210225000Y-96841000D01*
X230665000Y-103311000D02*
X230665000Y-96841000D01*
X210225000Y-103311000D02*
X230665000Y-103311000D01*
X210225000Y-101076000D02*
X210225000Y-103311000D01*
X210225000Y-99076000D02*
G75*
G02X210225000Y-101076000I0J-1000000D01*
G01*
X230665000Y-87690000D02*
X230665000Y-82490000D01*
X212825000Y-87690000D02*
X230665000Y-87690000D01*
X210225000Y-82490000D02*
X230665000Y-82490000D01*
X212825000Y-87690000D02*
X212825000Y-85090000D01*
X212825000Y-85090000D02*
X210225000Y-85090000D01*
X210225000Y-85090000D02*
X210225000Y-82490000D01*
X211555000Y-87690000D02*
X210225000Y-87690000D01*
X210225000Y-87690000D02*
X210225000Y-86360000D01*
X184190000Y-87690000D02*
X184190000Y-86360000D01*
X185520000Y-87690000D02*
X184190000Y-87690000D01*
X184190000Y-85090000D02*
X184190000Y-82490000D01*
X186790000Y-85090000D02*
X184190000Y-85090000D01*
X186790000Y-87690000D02*
X186790000Y-85090000D01*
X184190000Y-82490000D02*
X204630000Y-82490000D01*
X186790000Y-87690000D02*
X204630000Y-87690000D01*
X204630000Y-87690000D02*
X204630000Y-82490000D01*
X197298000Y-117161000D02*
X197298000Y-119396000D01*
X217738000Y-117161000D02*
X197298000Y-117161000D01*
X217738000Y-123631000D02*
X217738000Y-117161000D01*
X197298000Y-123631000D02*
X217738000Y-123631000D01*
X197298000Y-121396000D02*
X197298000Y-123631000D01*
X197298000Y-119396000D02*
G75*
G02X197298000Y-121396000I0J-1000000D01*
G01*
D11*
X77642380Y-86423333D02*
X77166190Y-86756666D01*
X77642380Y-86994761D02*
X76642380Y-86994761D01*
X76642380Y-86613809D01*
X76690000Y-86518571D01*
X76737619Y-86470952D01*
X76832857Y-86423333D01*
X76975714Y-86423333D01*
X77070952Y-86470952D01*
X77118571Y-86518571D01*
X77166190Y-86613809D01*
X77166190Y-86994761D01*
X77118571Y-85994761D02*
X77118571Y-85661428D01*
X77642380Y-85518571D02*
X77642380Y-85994761D01*
X76642380Y-85994761D01*
X76642380Y-85518571D01*
X77118571Y-84756666D02*
X77118571Y-85090000D01*
X77642380Y-85090000D02*
X76642380Y-85090000D01*
X76642380Y-84613809D01*
X76642380Y-84090000D02*
X76880476Y-84090000D01*
X76785238Y-84328095D02*
X76880476Y-84090000D01*
X76785238Y-83851904D01*
X77070952Y-84232857D02*
X76880476Y-84090000D01*
X77070952Y-83947142D01*
X76642380Y-83328095D02*
X76880476Y-83328095D01*
X76785238Y-83566190D02*
X76880476Y-83328095D01*
X76785238Y-83090000D01*
X77070952Y-83470952D02*
X76880476Y-83328095D01*
X77070952Y-83185238D01*
X130642380Y-86423333D02*
X130166190Y-86756666D01*
X130642380Y-86994761D02*
X129642380Y-86994761D01*
X129642380Y-86613809D01*
X129690000Y-86518571D01*
X129737619Y-86470952D01*
X129832857Y-86423333D01*
X129975714Y-86423333D01*
X130070952Y-86470952D01*
X130118571Y-86518571D01*
X130166190Y-86613809D01*
X130166190Y-86994761D01*
X130118571Y-85994761D02*
X130118571Y-85661428D01*
X130642380Y-85518571D02*
X130642380Y-85994761D01*
X129642380Y-85994761D01*
X129642380Y-85518571D01*
X130118571Y-84756666D02*
X130118571Y-85090000D01*
X130642380Y-85090000D02*
X129642380Y-85090000D01*
X129642380Y-84613809D01*
X129642380Y-84090000D02*
X129880476Y-84090000D01*
X129785238Y-84328095D02*
X129880476Y-84090000D01*
X129785238Y-83851904D01*
X130070952Y-84232857D02*
X129880476Y-84090000D01*
X130070952Y-83947142D01*
X129642380Y-83328095D02*
X129880476Y-83328095D01*
X129785238Y-83566190D02*
X129880476Y-83328095D01*
X129785238Y-83090000D01*
X130070952Y-83470952D02*
X129880476Y-83328095D01*
X130070952Y-83185238D01*
X103677380Y-86423333D02*
X103201190Y-86756666D01*
X103677380Y-86994761D02*
X102677380Y-86994761D01*
X102677380Y-86613809D01*
X102725000Y-86518571D01*
X102772619Y-86470952D01*
X102867857Y-86423333D01*
X103010714Y-86423333D01*
X103105952Y-86470952D01*
X103153571Y-86518571D01*
X103201190Y-86613809D01*
X103201190Y-86994761D01*
X103153571Y-85994761D02*
X103153571Y-85661428D01*
X103677380Y-85518571D02*
X103677380Y-85994761D01*
X102677380Y-85994761D01*
X102677380Y-85518571D01*
X103153571Y-84756666D02*
X103153571Y-85090000D01*
X103677380Y-85090000D02*
X102677380Y-85090000D01*
X102677380Y-84613809D01*
X102677380Y-84090000D02*
X102915476Y-84090000D01*
X102820238Y-84328095D02*
X102915476Y-84090000D01*
X102820238Y-83851904D01*
X103105952Y-84232857D02*
X102915476Y-84090000D01*
X103105952Y-83947142D01*
X102677380Y-83328095D02*
X102915476Y-83328095D01*
X102820238Y-83566190D02*
X102915476Y-83328095D01*
X102820238Y-83090000D01*
X103105952Y-83470952D02*
X102915476Y-83328095D01*
X103105952Y-83185238D01*
X156677380Y-86423333D02*
X156201190Y-86756666D01*
X156677380Y-86994761D02*
X155677380Y-86994761D01*
X155677380Y-86613809D01*
X155725000Y-86518571D01*
X155772619Y-86470952D01*
X155867857Y-86423333D01*
X156010714Y-86423333D01*
X156105952Y-86470952D01*
X156153571Y-86518571D01*
X156201190Y-86613809D01*
X156201190Y-86994761D01*
X156153571Y-85994761D02*
X156153571Y-85661428D01*
X156677380Y-85518571D02*
X156677380Y-85994761D01*
X155677380Y-85994761D01*
X155677380Y-85518571D01*
X156153571Y-84756666D02*
X156153571Y-85090000D01*
X156677380Y-85090000D02*
X155677380Y-85090000D01*
X155677380Y-84613809D01*
X155677380Y-84090000D02*
X155915476Y-84090000D01*
X155820238Y-84328095D02*
X155915476Y-84090000D01*
X155820238Y-83851904D01*
X156105952Y-84232857D02*
X155915476Y-84090000D01*
X156105952Y-83947142D01*
X155677380Y-83328095D02*
X155915476Y-83328095D01*
X155820238Y-83566190D02*
X155915476Y-83328095D01*
X155820238Y-83090000D01*
X156105952Y-83470952D02*
X155915476Y-83328095D01*
X156105952Y-83185238D01*
X209677380Y-86423333D02*
X209201190Y-86756666D01*
X209677380Y-86994761D02*
X208677380Y-86994761D01*
X208677380Y-86613809D01*
X208725000Y-86518571D01*
X208772619Y-86470952D01*
X208867857Y-86423333D01*
X209010714Y-86423333D01*
X209105952Y-86470952D01*
X209153571Y-86518571D01*
X209201190Y-86613809D01*
X209201190Y-86994761D01*
X209153571Y-85994761D02*
X209153571Y-85661428D01*
X209677380Y-85518571D02*
X209677380Y-85994761D01*
X208677380Y-85994761D01*
X208677380Y-85518571D01*
X209153571Y-84756666D02*
X209153571Y-85090000D01*
X209677380Y-85090000D02*
X208677380Y-85090000D01*
X208677380Y-84613809D01*
X208677380Y-84090000D02*
X208915476Y-84090000D01*
X208820238Y-84328095D02*
X208915476Y-84090000D01*
X208820238Y-83851904D01*
X209105952Y-84232857D02*
X208915476Y-84090000D01*
X209105952Y-83947142D01*
X208677380Y-83328095D02*
X208915476Y-83328095D01*
X208820238Y-83566190D02*
X208915476Y-83328095D01*
X208820238Y-83090000D01*
X209105952Y-83470952D02*
X208915476Y-83328095D01*
X209105952Y-83185238D01*
X183642380Y-86423333D02*
X183166190Y-86756666D01*
X183642380Y-86994761D02*
X182642380Y-86994761D01*
X182642380Y-86613809D01*
X182690000Y-86518571D01*
X182737619Y-86470952D01*
X182832857Y-86423333D01*
X182975714Y-86423333D01*
X183070952Y-86470952D01*
X183118571Y-86518571D01*
X183166190Y-86613809D01*
X183166190Y-86994761D01*
X183118571Y-85994761D02*
X183118571Y-85661428D01*
X183642380Y-85518571D02*
X183642380Y-85994761D01*
X182642380Y-85994761D01*
X182642380Y-85518571D01*
X183118571Y-84756666D02*
X183118571Y-85090000D01*
X183642380Y-85090000D02*
X182642380Y-85090000D01*
X182642380Y-84613809D01*
X182642380Y-84090000D02*
X182880476Y-84090000D01*
X182785238Y-84328095D02*
X182880476Y-84090000D01*
X182785238Y-83851904D01*
X183070952Y-84232857D02*
X182880476Y-84090000D01*
X183070952Y-83947142D01*
X182642380Y-83328095D02*
X182880476Y-83328095D01*
X182785238Y-83566190D02*
X182880476Y-83328095D01*
X182785238Y-83090000D01*
X183070952Y-83470952D02*
X182880476Y-83328095D01*
X183070952Y-83185238D01*
M02*
