M48
; DRILL file {KiCad (5.1.4)-1} date 10/18/2019 10:47:27 PM
; FORMAT={-:-/ absolute / inch / decimal}
; #@! TF.CreationDate,2019-10-18T22:47:27-04:00
; #@! TF.GenerationSoftware,Kicad,Pcbnew,(5.1.4)-1
; #@! TF.FileFunction,Plated,1,2,PTH
FMAT,2
INCH
T1C0.0157
T2C0.0315
T3C0.0394
%
G90
G05
T1
X2.9768Y-3.74
X3.6368Y-4.74
X5.0634Y-3.74
X5.27Y-4.4
X5.27Y-4.46
X5.6734Y-4.4
X5.7234Y-4.74
X7.05Y-4.4
X7.05Y-4.46
X7.15Y-3.74
X7.76Y-4.4
X7.81Y-4.74
T2
X9.32Y-4.04
X9.32Y-4.94
X9.42Y-4.04
X9.42Y-4.94
X9.52Y-4.04
X9.52Y-4.94
X9.62Y-4.04
X9.62Y-4.94
X9.72Y-4.04
X9.72Y-4.94
X9.82Y-4.04
X9.82Y-4.94
X9.92Y-4.04
X9.92Y-4.94
X10.02Y-4.04
X10.02Y-4.94
X10.12Y-4.04
X10.12Y-4.94
X10.22Y-4.04
X10.22Y-4.94
X10.32Y-4.04
X10.32Y-4.94
X10.42Y-4.04
X10.42Y-4.94
X10.52Y-4.04
X10.52Y-4.94
X10.62Y-4.04
X10.62Y-4.94
X10.72Y-4.04
X10.72Y-4.94
X3.6468Y-4.54
X3.6468Y-4.94
X3.7468Y-4.54
X3.7468Y-4.94
X3.8468Y-4.54
X3.8468Y-4.94
X3.9468Y-4.54
X3.9468Y-4.94
X4.0468Y-4.54
X4.0468Y-4.94
X4.1468Y-4.54
X4.1468Y-4.94
X4.2468Y-4.54
X4.2468Y-4.94
X4.3468Y-4.54
X4.3468Y-4.94
X3.1307Y-3.74
X3.1307Y-4.14
X3.2307Y-3.74
X3.2307Y-4.14
X3.3307Y-3.74
X3.3307Y-4.14
X3.4307Y-3.74
X3.4307Y-4.14
X3.5307Y-3.74
X3.5307Y-4.14
X3.6307Y-3.74
X3.6307Y-4.14
X3.7307Y-3.74
X3.7307Y-4.14
X3.8307Y-3.74
X3.8307Y-4.14
X6.2423Y-3.74
X6.2423Y-4.14
X6.3423Y-3.74
X6.3423Y-4.14
X6.4423Y-3.74
X6.4423Y-4.14
X6.5423Y-3.74
X6.5423Y-4.14
X6.6423Y-3.74
X6.6423Y-4.14
X6.7423Y-3.74
X6.7423Y-4.14
X6.8423Y-3.74
X6.8423Y-4.14
X6.9423Y-3.74
X6.9423Y-4.14
X8.3289Y-3.74
X8.3289Y-4.14
X8.4289Y-3.74
X8.4289Y-4.14
X8.5289Y-3.74
X8.5289Y-4.14
X8.6289Y-3.74
X8.6289Y-4.14
X8.7289Y-3.74
X8.7289Y-4.14
X8.8289Y-3.74
X8.8289Y-4.14
X8.9289Y-3.74
X8.9289Y-4.14
X9.0289Y-3.74
X9.0289Y-4.14
X7.82Y-4.54
X7.82Y-4.94
X7.92Y-4.54
X7.92Y-4.94
X8.02Y-4.54
X8.02Y-4.94
X8.12Y-4.54
X8.12Y-4.94
X8.22Y-4.54
X8.22Y-4.94
X8.32Y-4.54
X8.32Y-4.94
X8.42Y-4.54
X8.42Y-4.94
X8.52Y-4.54
X8.52Y-4.94
X4.1557Y-3.74
X4.1557Y-4.14
X4.2557Y-3.74
X4.2557Y-4.14
X4.3557Y-3.74
X4.3557Y-4.14
X4.4557Y-3.74
X4.4557Y-4.14
X4.5557Y-3.74
X4.5557Y-4.14
X4.6557Y-3.74
X4.6557Y-4.14
X4.7557Y-3.74
X4.7557Y-4.14
X4.8557Y-3.74
X4.8557Y-4.14
X7.3039Y-3.74
X7.3039Y-4.14
X7.4039Y-3.74
X7.4039Y-4.14
X7.5039Y-3.74
X7.5039Y-4.14
X7.6039Y-3.74
X7.6039Y-4.14
X7.7039Y-3.74
X7.7039Y-4.14
X7.8039Y-3.74
X7.8039Y-4.14
X7.9039Y-3.74
X7.9039Y-4.14
X8.0039Y-3.74
X8.0039Y-4.14
X5.7334Y-4.54
X5.7334Y-4.94
X5.8334Y-4.54
X5.8334Y-4.94
X5.9334Y-4.54
X5.9334Y-4.94
X6.0334Y-4.54
X6.0334Y-4.94
X6.1334Y-4.54
X6.1334Y-4.94
X6.2334Y-4.54
X6.2334Y-4.94
X6.3334Y-4.54
X6.3334Y-4.94
X6.4334Y-4.54
X6.4334Y-4.94
X5.2173Y-3.74
X5.2173Y-4.14
X5.3173Y-3.74
X5.3173Y-4.14
X5.4173Y-3.74
X5.4173Y-4.14
X5.5173Y-3.74
X5.5173Y-4.14
X5.6173Y-3.74
X5.6173Y-4.14
X5.7173Y-3.74
X5.7173Y-4.14
X5.8173Y-3.74
X5.8173Y-4.14
X5.9173Y-3.74
X5.9173Y-4.14
T3
X8.3289Y-3.3
X8.3289Y-3.4
X8.4289Y-3.3
X8.4289Y-3.4
X8.5289Y-3.3
X8.5289Y-3.4
X8.6289Y-3.3
X8.6289Y-3.4
X8.7289Y-3.3
X8.7289Y-3.4
X8.8289Y-3.3
X8.8289Y-3.4
X8.9289Y-3.3
X8.9289Y-3.4
X9.0289Y-3.3
X9.0289Y-3.4
X5.2173Y-3.3
X5.2173Y-3.4
X5.3173Y-3.3
X5.3173Y-3.4
X5.4173Y-3.3
X5.4173Y-3.4
X5.5173Y-3.3
X5.5173Y-3.4
X5.6173Y-3.3
X5.6173Y-3.4
X5.7173Y-3.3
X5.7173Y-3.4
X5.8173Y-3.3
X5.8173Y-3.4
X5.9173Y-3.3
X5.9173Y-3.4
X3.1307Y-3.3
X3.1307Y-3.4
X3.2307Y-3.3
X3.2307Y-3.4
X3.3307Y-3.3
X3.3307Y-3.4
X3.4307Y-3.3
X3.4307Y-3.4
X3.5307Y-3.3
X3.5307Y-3.4
X3.6307Y-3.3
X3.6307Y-3.4
X3.7307Y-3.3
X3.7307Y-3.4
X3.8307Y-3.3
X3.8307Y-3.4
X6.2423Y-3.3
X6.2423Y-3.4
X6.3423Y-3.3
X6.3423Y-3.4
X6.4423Y-3.3
X6.4423Y-3.4
X6.5423Y-3.3
X6.5423Y-3.4
X6.6423Y-3.3
X6.6423Y-3.4
X6.7423Y-3.3
X6.7423Y-3.4
X6.8423Y-3.3
X6.8423Y-3.4
X6.9423Y-3.3
X6.9423Y-3.4
X7.3039Y-3.3
X7.3039Y-3.4
X7.4039Y-3.3
X7.4039Y-3.4
X7.5039Y-3.3
X7.5039Y-3.4
X7.6039Y-3.3
X7.6039Y-3.4
X7.7039Y-3.3
X7.7039Y-3.4
X7.8039Y-3.3
X7.8039Y-3.4
X7.9039Y-3.3
X7.9039Y-3.4
X8.0039Y-3.3
X8.0039Y-3.4
X4.1557Y-3.3
X4.1557Y-3.4
X4.2557Y-3.3
X4.2557Y-3.4
X4.3557Y-3.3
X4.3557Y-3.4
X4.4557Y-3.3
X4.4557Y-3.4
X4.5557Y-3.3
X4.5557Y-3.4
X4.6557Y-3.3
X4.6557Y-3.4
X4.7557Y-3.3
X4.7557Y-3.4
X4.8557Y-3.3
X4.8557Y-3.4
T0
M30
