G04 #@! TF.GenerationSoftware,KiCad,Pcbnew,(5.1.4-0-10_14)*
G04 #@! TF.CreationDate,2019-10-26T21:00:50-04:00*
G04 #@! TF.ProjectId,NixieClock,4e697869-6543-46c6-9f63-6b2e6b696361,rev?*
G04 #@! TF.SameCoordinates,Original*
G04 #@! TF.FileFunction,Legend,Top*
G04 #@! TF.FilePolarity,Positive*
%FSLAX46Y46*%
G04 Gerber Fmt 4.6, Leading zero omitted, Abs format (unit mm)*
G04 Created by KiCad (PCBNEW (5.1.4-0-10_14)) date 2019-10-26 21:00:50*
%MOMM*%
%LPD*%
G04 APERTURE LIST*
%ADD10C,0.120000*%
%ADD11C,0.150000*%
G04 APERTURE END LIST*
D10*
X97775000Y-73375000D02*
X97775000Y-75215000D01*
X97775000Y-75215000D02*
X101615000Y-75215000D01*
X101615000Y-75215000D02*
X101615000Y-73375000D01*
X101615000Y-73375000D02*
X97775000Y-73375000D01*
X96825000Y-74295000D02*
X97775000Y-74295000D01*
X102565000Y-74295000D02*
X101615000Y-74295000D01*
X218552000Y-73756000D02*
X218552000Y-75596000D01*
X218552000Y-75596000D02*
X222392000Y-75596000D01*
X222392000Y-75596000D02*
X222392000Y-73756000D01*
X222392000Y-73756000D02*
X218552000Y-73756000D01*
X217602000Y-74676000D02*
X218552000Y-74676000D01*
X223342000Y-74676000D02*
X222392000Y-74676000D01*
X192390000Y-73375000D02*
X192390000Y-75215000D01*
X192390000Y-75215000D02*
X196230000Y-75215000D01*
X196230000Y-75215000D02*
X196230000Y-73375000D01*
X196230000Y-73375000D02*
X192390000Y-73375000D01*
X191440000Y-74295000D02*
X192390000Y-74295000D01*
X197180000Y-74295000D02*
X196230000Y-74295000D01*
X165466000Y-73375000D02*
X165466000Y-75215000D01*
X165466000Y-75215000D02*
X169306000Y-75215000D01*
X169306000Y-75215000D02*
X169306000Y-73375000D01*
X169306000Y-73375000D02*
X165466000Y-73375000D01*
X164516000Y-74295000D02*
X165466000Y-74295000D01*
X170256000Y-74295000D02*
X169306000Y-74295000D01*
X139431000Y-73375000D02*
X139431000Y-75215000D01*
X139431000Y-75215000D02*
X143271000Y-75215000D01*
X143271000Y-75215000D02*
X143271000Y-73375000D01*
X143271000Y-73375000D02*
X139431000Y-73375000D01*
X138481000Y-74295000D02*
X139431000Y-74295000D01*
X144221000Y-74295000D02*
X143271000Y-74295000D01*
X112507000Y-73375000D02*
X112507000Y-75215000D01*
X112507000Y-75215000D02*
X116347000Y-75215000D01*
X116347000Y-75215000D02*
X116347000Y-73375000D01*
X116347000Y-73375000D02*
X112507000Y-73375000D01*
X111557000Y-74295000D02*
X112507000Y-74295000D01*
X117297000Y-74295000D02*
X116347000Y-74295000D01*
X232760000Y-92725000D02*
X234600000Y-92725000D01*
X234600000Y-92725000D02*
X234600000Y-88885000D01*
X234600000Y-88885000D02*
X232760000Y-88885000D01*
X232760000Y-88885000D02*
X232760000Y-92725000D01*
X233680000Y-93675000D02*
X233680000Y-92725000D01*
X233680000Y-87935000D02*
X233680000Y-88885000D01*
X205836000Y-92725000D02*
X207676000Y-92725000D01*
X207676000Y-92725000D02*
X207676000Y-88885000D01*
X207676000Y-88885000D02*
X205836000Y-88885000D01*
X205836000Y-88885000D02*
X205836000Y-92725000D01*
X206756000Y-93675000D02*
X206756000Y-92725000D01*
X206756000Y-87935000D02*
X206756000Y-88885000D01*
X179420000Y-92725000D02*
X181260000Y-92725000D01*
X181260000Y-92725000D02*
X181260000Y-88885000D01*
X181260000Y-88885000D02*
X179420000Y-88885000D01*
X179420000Y-88885000D02*
X179420000Y-92725000D01*
X180340000Y-93675000D02*
X180340000Y-92725000D01*
X180340000Y-87935000D02*
X180340000Y-88885000D01*
X152877000Y-92725000D02*
X154717000Y-92725000D01*
X154717000Y-92725000D02*
X154717000Y-88885000D01*
X154717000Y-88885000D02*
X152877000Y-88885000D01*
X152877000Y-88885000D02*
X152877000Y-92725000D01*
X153797000Y-93675000D02*
X153797000Y-92725000D01*
X153797000Y-87935000D02*
X153797000Y-88885000D01*
X126461000Y-92725000D02*
X128301000Y-92725000D01*
X128301000Y-92725000D02*
X128301000Y-88885000D01*
X128301000Y-88885000D02*
X126461000Y-88885000D01*
X126461000Y-88885000D02*
X126461000Y-92725000D01*
X127381000Y-93675000D02*
X127381000Y-92725000D01*
X127381000Y-87935000D02*
X127381000Y-88885000D01*
X99918000Y-92725000D02*
X101758000Y-92725000D01*
X101758000Y-92725000D02*
X101758000Y-88885000D01*
X101758000Y-88885000D02*
X99918000Y-88885000D01*
X99918000Y-88885000D02*
X99918000Y-92725000D01*
X100838000Y-93675000D02*
X100838000Y-92725000D01*
X100838000Y-87935000D02*
X100838000Y-88885000D01*
X167355000Y-122570000D02*
X169195000Y-122570000D01*
X169195000Y-122570000D02*
X169195000Y-118730000D01*
X169195000Y-118730000D02*
X167355000Y-118730000D01*
X167355000Y-118730000D02*
X167355000Y-122570000D01*
X168275000Y-123520000D02*
X168275000Y-122570000D01*
X168275000Y-117780000D02*
X168275000Y-118730000D01*
X114370600Y-122570000D02*
X116210600Y-122570000D01*
X116210600Y-122570000D02*
X116210600Y-118730000D01*
X116210600Y-118730000D02*
X114370600Y-118730000D01*
X114370600Y-118730000D02*
X114370600Y-122570000D01*
X115290600Y-123520000D02*
X115290600Y-122570000D01*
X115290600Y-117780000D02*
X115290600Y-118730000D01*
X81026000Y-113843000D02*
X81026000Y-114793000D01*
X81026000Y-119583000D02*
X81026000Y-118633000D01*
X80106000Y-114793000D02*
X80106000Y-118633000D01*
X81946000Y-114793000D02*
X80106000Y-114793000D01*
X81946000Y-118633000D02*
X81946000Y-114793000D01*
X80106000Y-118633000D02*
X81946000Y-118633000D01*
X268647000Y-127402000D02*
X268647000Y-82402000D01*
X305647000Y-127402000D02*
X305647000Y-82402000D01*
X305647000Y-127402000D02*
X268647000Y-127402000D01*
X305647000Y-82402000D02*
X268647000Y-82402000D01*
X230665000Y-87690000D02*
X230665000Y-82490000D01*
X212825000Y-87690000D02*
X230665000Y-87690000D01*
X210225000Y-82490000D02*
X230665000Y-82490000D01*
X212825000Y-87690000D02*
X212825000Y-85090000D01*
X212825000Y-85090000D02*
X210225000Y-85090000D01*
X210225000Y-85090000D02*
X210225000Y-82490000D01*
X211555000Y-87690000D02*
X210225000Y-87690000D01*
X210225000Y-87690000D02*
X210225000Y-86360000D01*
X78502200Y-122622000D02*
X78502200Y-125282000D01*
X81102200Y-122622000D02*
X78502200Y-122622000D01*
X81102200Y-125282000D02*
X78502200Y-125282000D01*
X81102200Y-122622000D02*
X81102200Y-125282000D01*
X82372200Y-122622000D02*
X83702200Y-122622000D01*
X83702200Y-122622000D02*
X83702200Y-123952000D01*
X120336000Y-123130000D02*
X120336000Y-125790000D01*
X122936000Y-123130000D02*
X120336000Y-123130000D01*
X122936000Y-125790000D02*
X120336000Y-125790000D01*
X122936000Y-123130000D02*
X122936000Y-125790000D01*
X124206000Y-123130000D02*
X125536000Y-123130000D01*
X125536000Y-123130000D02*
X125536000Y-124460000D01*
X178520400Y-123130000D02*
X178520400Y-124460000D01*
X177190400Y-123130000D02*
X178520400Y-123130000D01*
X175920400Y-123130000D02*
X175920400Y-125790000D01*
X175920400Y-125790000D02*
X173320400Y-125790000D01*
X175920400Y-123130000D02*
X173320400Y-123130000D01*
X173320400Y-123130000D02*
X173320400Y-125790000D01*
X234792000Y-121326000D02*
X236632000Y-121326000D01*
X234792000Y-121086000D02*
X236632000Y-121086000D01*
X234792000Y-121206000D02*
X236632000Y-121206000D01*
X235712000Y-117322000D02*
X235712000Y-118502000D01*
X235712000Y-122962000D02*
X235712000Y-121782000D01*
X234792000Y-118502000D02*
X234792000Y-121782000D01*
X236632000Y-118502000D02*
X234792000Y-118502000D01*
X236632000Y-121782000D02*
X236632000Y-118502000D01*
X234792000Y-121782000D02*
X236632000Y-121782000D01*
X184190000Y-99076000D02*
G75*
G02X184190000Y-101076000I0J-1000000D01*
G01*
X184190000Y-101076000D02*
X184190000Y-103311000D01*
X184190000Y-103311000D02*
X204630000Y-103311000D01*
X204630000Y-103311000D02*
X204630000Y-96841000D01*
X204630000Y-96841000D02*
X184190000Y-96841000D01*
X184190000Y-96841000D02*
X184190000Y-99076000D01*
X151630000Y-87690000D02*
X151630000Y-82490000D01*
X133790000Y-87690000D02*
X151630000Y-87690000D01*
X131190000Y-82490000D02*
X151630000Y-82490000D01*
X133790000Y-87690000D02*
X133790000Y-85090000D01*
X133790000Y-85090000D02*
X131190000Y-85090000D01*
X131190000Y-85090000D02*
X131190000Y-82490000D01*
X132520000Y-87690000D02*
X131190000Y-87690000D01*
X131190000Y-87690000D02*
X131190000Y-86360000D01*
X157225000Y-87690000D02*
X157225000Y-86360000D01*
X158555000Y-87690000D02*
X157225000Y-87690000D01*
X157225000Y-85090000D02*
X157225000Y-82490000D01*
X159825000Y-85090000D02*
X157225000Y-85090000D01*
X159825000Y-87690000D02*
X159825000Y-85090000D01*
X157225000Y-82490000D02*
X177665000Y-82490000D01*
X159825000Y-87690000D02*
X177665000Y-87690000D01*
X177665000Y-87690000D02*
X177665000Y-82490000D01*
X222123000Y-114046000D02*
X222123000Y-131318000D01*
X233299000Y-114046000D02*
X222123000Y-114046000D01*
X233299000Y-131318000D02*
X233299000Y-114046000D01*
X222123000Y-131318000D02*
X233299000Y-131318000D01*
X265754000Y-130626000D02*
X265754000Y-82226000D01*
X237674000Y-130626000D02*
X265754000Y-130626000D01*
X237674000Y-82226000D02*
X237674000Y-130626000D01*
X265754000Y-82226000D02*
X237674000Y-82226000D01*
X91298000Y-119396000D02*
G75*
G02X91298000Y-121396000I0J-1000000D01*
G01*
X91298000Y-121396000D02*
X91298000Y-123631000D01*
X91298000Y-123631000D02*
X111738000Y-123631000D01*
X111738000Y-123631000D02*
X111738000Y-117161000D01*
X111738000Y-117161000D02*
X91298000Y-117161000D01*
X91298000Y-117161000D02*
X91298000Y-119396000D01*
X144298000Y-119396000D02*
G75*
G02X144298000Y-121396000I0J-1000000D01*
G01*
X144298000Y-121396000D02*
X144298000Y-123631000D01*
X144298000Y-123631000D02*
X164738000Y-123631000D01*
X164738000Y-123631000D02*
X164738000Y-117161000D01*
X164738000Y-117161000D02*
X144298000Y-117161000D01*
X144298000Y-117161000D02*
X144298000Y-119396000D01*
X98630000Y-87690000D02*
X98630000Y-82490000D01*
X80790000Y-87690000D02*
X98630000Y-87690000D01*
X78190000Y-82490000D02*
X98630000Y-82490000D01*
X80790000Y-87690000D02*
X80790000Y-85090000D01*
X80790000Y-85090000D02*
X78190000Y-85090000D01*
X78190000Y-85090000D02*
X78190000Y-82490000D01*
X79520000Y-87690000D02*
X78190000Y-87690000D01*
X78190000Y-87690000D02*
X78190000Y-86360000D01*
X104225000Y-87690000D02*
X104225000Y-86360000D01*
X105555000Y-87690000D02*
X104225000Y-87690000D01*
X104225000Y-85090000D02*
X104225000Y-82490000D01*
X106825000Y-85090000D02*
X104225000Y-85090000D01*
X106825000Y-87690000D02*
X106825000Y-85090000D01*
X104225000Y-82490000D02*
X124665000Y-82490000D01*
X106825000Y-87690000D02*
X124665000Y-87690000D01*
X124665000Y-87690000D02*
X124665000Y-82490000D01*
X78190000Y-96841000D02*
X78190000Y-99076000D01*
X98630000Y-96841000D02*
X78190000Y-96841000D01*
X98630000Y-103311000D02*
X98630000Y-96841000D01*
X78190000Y-103311000D02*
X98630000Y-103311000D01*
X78190000Y-101076000D02*
X78190000Y-103311000D01*
X78190000Y-99076000D02*
G75*
G02X78190000Y-101076000I0J-1000000D01*
G01*
X131190000Y-96841000D02*
X131190000Y-99076000D01*
X151630000Y-96841000D02*
X131190000Y-96841000D01*
X151630000Y-103311000D02*
X151630000Y-96841000D01*
X131190000Y-103311000D02*
X151630000Y-103311000D01*
X131190000Y-101076000D02*
X131190000Y-103311000D01*
X131190000Y-99076000D02*
G75*
G02X131190000Y-101076000I0J-1000000D01*
G01*
X104225000Y-99076000D02*
G75*
G02X104225000Y-101076000I0J-1000000D01*
G01*
X104225000Y-101076000D02*
X104225000Y-103311000D01*
X104225000Y-103311000D02*
X124665000Y-103311000D01*
X124665000Y-103311000D02*
X124665000Y-96841000D01*
X124665000Y-96841000D02*
X104225000Y-96841000D01*
X104225000Y-96841000D02*
X104225000Y-99076000D01*
X157225000Y-99076000D02*
G75*
G02X157225000Y-101076000I0J-1000000D01*
G01*
X157225000Y-101076000D02*
X157225000Y-103311000D01*
X157225000Y-103311000D02*
X177665000Y-103311000D01*
X177665000Y-103311000D02*
X177665000Y-96841000D01*
X177665000Y-96841000D02*
X157225000Y-96841000D01*
X157225000Y-96841000D02*
X157225000Y-99076000D01*
X210225000Y-96841000D02*
X210225000Y-99076000D01*
X230665000Y-96841000D02*
X210225000Y-96841000D01*
X230665000Y-103311000D02*
X230665000Y-96841000D01*
X210225000Y-103311000D02*
X230665000Y-103311000D01*
X210225000Y-101076000D02*
X210225000Y-103311000D01*
X210225000Y-99076000D02*
G75*
G02X210225000Y-101076000I0J-1000000D01*
G01*
X184190000Y-87690000D02*
X184190000Y-86360000D01*
X185520000Y-87690000D02*
X184190000Y-87690000D01*
X184190000Y-85090000D02*
X184190000Y-82490000D01*
X186790000Y-85090000D02*
X184190000Y-85090000D01*
X186790000Y-87690000D02*
X186790000Y-85090000D01*
X184190000Y-82490000D02*
X204630000Y-82490000D01*
X186790000Y-87690000D02*
X204630000Y-87690000D01*
X204630000Y-87690000D02*
X204630000Y-82490000D01*
X197298000Y-117161000D02*
X197298000Y-119396000D01*
X217738000Y-117161000D02*
X197298000Y-117161000D01*
X217738000Y-123631000D02*
X217738000Y-117161000D01*
X197298000Y-123631000D02*
X217738000Y-123631000D01*
X197298000Y-121396000D02*
X197298000Y-123631000D01*
X197298000Y-119396000D02*
G75*
G02X197298000Y-121396000I0J-1000000D01*
G01*
D11*
X99052142Y-72827380D02*
X98718809Y-72351190D01*
X98480714Y-72827380D02*
X98480714Y-71827380D01*
X98861666Y-71827380D01*
X98956904Y-71875000D01*
X99004523Y-71922619D01*
X99052142Y-72017857D01*
X99052142Y-72160714D01*
X99004523Y-72255952D01*
X98956904Y-72303571D01*
X98861666Y-72351190D01*
X98480714Y-72351190D01*
X100004523Y-72827380D02*
X99433095Y-72827380D01*
X99718809Y-72827380D02*
X99718809Y-71827380D01*
X99623571Y-71970238D01*
X99528333Y-72065476D01*
X99433095Y-72113095D01*
X100623571Y-71827380D02*
X100718809Y-71827380D01*
X100814047Y-71875000D01*
X100861666Y-71922619D01*
X100909285Y-72017857D01*
X100956904Y-72208333D01*
X100956904Y-72446428D01*
X100909285Y-72636904D01*
X100861666Y-72732142D01*
X100814047Y-72779761D01*
X100718809Y-72827380D01*
X100623571Y-72827380D01*
X100528333Y-72779761D01*
X100480714Y-72732142D01*
X100433095Y-72636904D01*
X100385476Y-72446428D01*
X100385476Y-72208333D01*
X100433095Y-72017857D01*
X100480714Y-71922619D01*
X100528333Y-71875000D01*
X100623571Y-71827380D01*
X219829142Y-73208380D02*
X219495809Y-72732190D01*
X219257714Y-73208380D02*
X219257714Y-72208380D01*
X219638666Y-72208380D01*
X219733904Y-72256000D01*
X219781523Y-72303619D01*
X219829142Y-72398857D01*
X219829142Y-72541714D01*
X219781523Y-72636952D01*
X219733904Y-72684571D01*
X219638666Y-72732190D01*
X219257714Y-72732190D01*
X220781523Y-73208380D02*
X220210095Y-73208380D01*
X220495809Y-73208380D02*
X220495809Y-72208380D01*
X220400571Y-72351238D01*
X220305333Y-72446476D01*
X220210095Y-72494095D01*
X221686285Y-72208380D02*
X221210095Y-72208380D01*
X221162476Y-72684571D01*
X221210095Y-72636952D01*
X221305333Y-72589333D01*
X221543428Y-72589333D01*
X221638666Y-72636952D01*
X221686285Y-72684571D01*
X221733904Y-72779809D01*
X221733904Y-73017904D01*
X221686285Y-73113142D01*
X221638666Y-73160761D01*
X221543428Y-73208380D01*
X221305333Y-73208380D01*
X221210095Y-73160761D01*
X221162476Y-73113142D01*
X193667142Y-72827380D02*
X193333809Y-72351190D01*
X193095714Y-72827380D02*
X193095714Y-71827380D01*
X193476666Y-71827380D01*
X193571904Y-71875000D01*
X193619523Y-71922619D01*
X193667142Y-72017857D01*
X193667142Y-72160714D01*
X193619523Y-72255952D01*
X193571904Y-72303571D01*
X193476666Y-72351190D01*
X193095714Y-72351190D01*
X194619523Y-72827380D02*
X194048095Y-72827380D01*
X194333809Y-72827380D02*
X194333809Y-71827380D01*
X194238571Y-71970238D01*
X194143333Y-72065476D01*
X194048095Y-72113095D01*
X195476666Y-72160714D02*
X195476666Y-72827380D01*
X195238571Y-71779761D02*
X195000476Y-72494047D01*
X195619523Y-72494047D01*
X166743142Y-72827380D02*
X166409809Y-72351190D01*
X166171714Y-72827380D02*
X166171714Y-71827380D01*
X166552666Y-71827380D01*
X166647904Y-71875000D01*
X166695523Y-71922619D01*
X166743142Y-72017857D01*
X166743142Y-72160714D01*
X166695523Y-72255952D01*
X166647904Y-72303571D01*
X166552666Y-72351190D01*
X166171714Y-72351190D01*
X167695523Y-72827380D02*
X167124095Y-72827380D01*
X167409809Y-72827380D02*
X167409809Y-71827380D01*
X167314571Y-71970238D01*
X167219333Y-72065476D01*
X167124095Y-72113095D01*
X168028857Y-71827380D02*
X168647904Y-71827380D01*
X168314571Y-72208333D01*
X168457428Y-72208333D01*
X168552666Y-72255952D01*
X168600285Y-72303571D01*
X168647904Y-72398809D01*
X168647904Y-72636904D01*
X168600285Y-72732142D01*
X168552666Y-72779761D01*
X168457428Y-72827380D01*
X168171714Y-72827380D01*
X168076476Y-72779761D01*
X168028857Y-72732142D01*
X140708142Y-72827380D02*
X140374809Y-72351190D01*
X140136714Y-72827380D02*
X140136714Y-71827380D01*
X140517666Y-71827380D01*
X140612904Y-71875000D01*
X140660523Y-71922619D01*
X140708142Y-72017857D01*
X140708142Y-72160714D01*
X140660523Y-72255952D01*
X140612904Y-72303571D01*
X140517666Y-72351190D01*
X140136714Y-72351190D01*
X141660523Y-72827380D02*
X141089095Y-72827380D01*
X141374809Y-72827380D02*
X141374809Y-71827380D01*
X141279571Y-71970238D01*
X141184333Y-72065476D01*
X141089095Y-72113095D01*
X142041476Y-71922619D02*
X142089095Y-71875000D01*
X142184333Y-71827380D01*
X142422428Y-71827380D01*
X142517666Y-71875000D01*
X142565285Y-71922619D01*
X142612904Y-72017857D01*
X142612904Y-72113095D01*
X142565285Y-72255952D01*
X141993857Y-72827380D01*
X142612904Y-72827380D01*
X113784142Y-72827380D02*
X113450809Y-72351190D01*
X113212714Y-72827380D02*
X113212714Y-71827380D01*
X113593666Y-71827380D01*
X113688904Y-71875000D01*
X113736523Y-71922619D01*
X113784142Y-72017857D01*
X113784142Y-72160714D01*
X113736523Y-72255952D01*
X113688904Y-72303571D01*
X113593666Y-72351190D01*
X113212714Y-72351190D01*
X114736523Y-72827380D02*
X114165095Y-72827380D01*
X114450809Y-72827380D02*
X114450809Y-71827380D01*
X114355571Y-71970238D01*
X114260333Y-72065476D01*
X114165095Y-72113095D01*
X115688904Y-72827380D02*
X115117476Y-72827380D01*
X115403190Y-72827380D02*
X115403190Y-71827380D01*
X115307952Y-71970238D01*
X115212714Y-72065476D01*
X115117476Y-72113095D01*
X232212380Y-90971666D02*
X231736190Y-91305000D01*
X232212380Y-91543095D02*
X231212380Y-91543095D01*
X231212380Y-91162142D01*
X231260000Y-91066904D01*
X231307619Y-91019285D01*
X231402857Y-90971666D01*
X231545714Y-90971666D01*
X231640952Y-91019285D01*
X231688571Y-91066904D01*
X231736190Y-91162142D01*
X231736190Y-91543095D01*
X232212380Y-90495476D02*
X232212380Y-90305000D01*
X232164761Y-90209761D01*
X232117142Y-90162142D01*
X231974285Y-90066904D01*
X231783809Y-90019285D01*
X231402857Y-90019285D01*
X231307619Y-90066904D01*
X231260000Y-90114523D01*
X231212380Y-90209761D01*
X231212380Y-90400238D01*
X231260000Y-90495476D01*
X231307619Y-90543095D01*
X231402857Y-90590714D01*
X231640952Y-90590714D01*
X231736190Y-90543095D01*
X231783809Y-90495476D01*
X231831428Y-90400238D01*
X231831428Y-90209761D01*
X231783809Y-90114523D01*
X231736190Y-90066904D01*
X231640952Y-90019285D01*
X205288380Y-90971666D02*
X204812190Y-91305000D01*
X205288380Y-91543095D02*
X204288380Y-91543095D01*
X204288380Y-91162142D01*
X204336000Y-91066904D01*
X204383619Y-91019285D01*
X204478857Y-90971666D01*
X204621714Y-90971666D01*
X204716952Y-91019285D01*
X204764571Y-91066904D01*
X204812190Y-91162142D01*
X204812190Y-91543095D01*
X204716952Y-90400238D02*
X204669333Y-90495476D01*
X204621714Y-90543095D01*
X204526476Y-90590714D01*
X204478857Y-90590714D01*
X204383619Y-90543095D01*
X204336000Y-90495476D01*
X204288380Y-90400238D01*
X204288380Y-90209761D01*
X204336000Y-90114523D01*
X204383619Y-90066904D01*
X204478857Y-90019285D01*
X204526476Y-90019285D01*
X204621714Y-90066904D01*
X204669333Y-90114523D01*
X204716952Y-90209761D01*
X204716952Y-90400238D01*
X204764571Y-90495476D01*
X204812190Y-90543095D01*
X204907428Y-90590714D01*
X205097904Y-90590714D01*
X205193142Y-90543095D01*
X205240761Y-90495476D01*
X205288380Y-90400238D01*
X205288380Y-90209761D01*
X205240761Y-90114523D01*
X205193142Y-90066904D01*
X205097904Y-90019285D01*
X204907428Y-90019285D01*
X204812190Y-90066904D01*
X204764571Y-90114523D01*
X204716952Y-90209761D01*
X178872380Y-90971666D02*
X178396190Y-91305000D01*
X178872380Y-91543095D02*
X177872380Y-91543095D01*
X177872380Y-91162142D01*
X177920000Y-91066904D01*
X177967619Y-91019285D01*
X178062857Y-90971666D01*
X178205714Y-90971666D01*
X178300952Y-91019285D01*
X178348571Y-91066904D01*
X178396190Y-91162142D01*
X178396190Y-91543095D01*
X177872380Y-90638333D02*
X177872380Y-89971666D01*
X178872380Y-90400238D01*
X152329380Y-90971666D02*
X151853190Y-91305000D01*
X152329380Y-91543095D02*
X151329380Y-91543095D01*
X151329380Y-91162142D01*
X151377000Y-91066904D01*
X151424619Y-91019285D01*
X151519857Y-90971666D01*
X151662714Y-90971666D01*
X151757952Y-91019285D01*
X151805571Y-91066904D01*
X151853190Y-91162142D01*
X151853190Y-91543095D01*
X151329380Y-90114523D02*
X151329380Y-90305000D01*
X151377000Y-90400238D01*
X151424619Y-90447857D01*
X151567476Y-90543095D01*
X151757952Y-90590714D01*
X152138904Y-90590714D01*
X152234142Y-90543095D01*
X152281761Y-90495476D01*
X152329380Y-90400238D01*
X152329380Y-90209761D01*
X152281761Y-90114523D01*
X152234142Y-90066904D01*
X152138904Y-90019285D01*
X151900809Y-90019285D01*
X151805571Y-90066904D01*
X151757952Y-90114523D01*
X151710333Y-90209761D01*
X151710333Y-90400238D01*
X151757952Y-90495476D01*
X151805571Y-90543095D01*
X151900809Y-90590714D01*
X125913380Y-90971666D02*
X125437190Y-91305000D01*
X125913380Y-91543095D02*
X124913380Y-91543095D01*
X124913380Y-91162142D01*
X124961000Y-91066904D01*
X125008619Y-91019285D01*
X125103857Y-90971666D01*
X125246714Y-90971666D01*
X125341952Y-91019285D01*
X125389571Y-91066904D01*
X125437190Y-91162142D01*
X125437190Y-91543095D01*
X124913380Y-90066904D02*
X124913380Y-90543095D01*
X125389571Y-90590714D01*
X125341952Y-90543095D01*
X125294333Y-90447857D01*
X125294333Y-90209761D01*
X125341952Y-90114523D01*
X125389571Y-90066904D01*
X125484809Y-90019285D01*
X125722904Y-90019285D01*
X125818142Y-90066904D01*
X125865761Y-90114523D01*
X125913380Y-90209761D01*
X125913380Y-90447857D01*
X125865761Y-90543095D01*
X125818142Y-90590714D01*
X99370380Y-90971666D02*
X98894190Y-91305000D01*
X99370380Y-91543095D02*
X98370380Y-91543095D01*
X98370380Y-91162142D01*
X98418000Y-91066904D01*
X98465619Y-91019285D01*
X98560857Y-90971666D01*
X98703714Y-90971666D01*
X98798952Y-91019285D01*
X98846571Y-91066904D01*
X98894190Y-91162142D01*
X98894190Y-91543095D01*
X98703714Y-90114523D02*
X99370380Y-90114523D01*
X98322761Y-90352619D02*
X99037047Y-90590714D01*
X99037047Y-89971666D01*
X166807380Y-120816666D02*
X166331190Y-121150000D01*
X166807380Y-121388095D02*
X165807380Y-121388095D01*
X165807380Y-121007142D01*
X165855000Y-120911904D01*
X165902619Y-120864285D01*
X165997857Y-120816666D01*
X166140714Y-120816666D01*
X166235952Y-120864285D01*
X166283571Y-120911904D01*
X166331190Y-121007142D01*
X166331190Y-121388095D01*
X165807380Y-120483333D02*
X165807380Y-119864285D01*
X166188333Y-120197619D01*
X166188333Y-120054761D01*
X166235952Y-119959523D01*
X166283571Y-119911904D01*
X166378809Y-119864285D01*
X166616904Y-119864285D01*
X166712142Y-119911904D01*
X166759761Y-119959523D01*
X166807380Y-120054761D01*
X166807380Y-120340476D01*
X166759761Y-120435714D01*
X166712142Y-120483333D01*
X113822980Y-120816666D02*
X113346790Y-121150000D01*
X113822980Y-121388095D02*
X112822980Y-121388095D01*
X112822980Y-121007142D01*
X112870600Y-120911904D01*
X112918219Y-120864285D01*
X113013457Y-120816666D01*
X113156314Y-120816666D01*
X113251552Y-120864285D01*
X113299171Y-120911904D01*
X113346790Y-121007142D01*
X113346790Y-121388095D01*
X112918219Y-120435714D02*
X112870600Y-120388095D01*
X112822980Y-120292857D01*
X112822980Y-120054761D01*
X112870600Y-119959523D01*
X112918219Y-119911904D01*
X113013457Y-119864285D01*
X113108695Y-119864285D01*
X113251552Y-119911904D01*
X113822980Y-120483333D01*
X113822980Y-119864285D01*
X79558380Y-116879666D02*
X79082190Y-117213000D01*
X79558380Y-117451095D02*
X78558380Y-117451095D01*
X78558380Y-117070142D01*
X78606000Y-116974904D01*
X78653619Y-116927285D01*
X78748857Y-116879666D01*
X78891714Y-116879666D01*
X78986952Y-116927285D01*
X79034571Y-116974904D01*
X79082190Y-117070142D01*
X79082190Y-117451095D01*
X79558380Y-115927285D02*
X79558380Y-116498714D01*
X79558380Y-116213000D02*
X78558380Y-116213000D01*
X78701238Y-116308238D01*
X78796476Y-116403476D01*
X78844095Y-116498714D01*
X85304261Y-124713904D02*
X85351880Y-124571047D01*
X85351880Y-124332952D01*
X85304261Y-124237714D01*
X85256642Y-124190095D01*
X85161404Y-124142476D01*
X85066166Y-124142476D01*
X84970928Y-124190095D01*
X84923309Y-124237714D01*
X84875690Y-124332952D01*
X84828071Y-124523428D01*
X84780452Y-124618666D01*
X84732833Y-124666285D01*
X84637595Y-124713904D01*
X84542357Y-124713904D01*
X84447119Y-124666285D01*
X84399500Y-124618666D01*
X84351880Y-124523428D01*
X84351880Y-124285333D01*
X84399500Y-124142476D01*
X85351880Y-123190095D02*
X85351880Y-123761523D01*
X85351880Y-123475809D02*
X84351880Y-123475809D01*
X84494738Y-123571047D01*
X84589976Y-123666285D01*
X84637595Y-123761523D01*
X126940761Y-125221904D02*
X126988380Y-125079047D01*
X126988380Y-124840952D01*
X126940761Y-124745714D01*
X126893142Y-124698095D01*
X126797904Y-124650476D01*
X126702666Y-124650476D01*
X126607428Y-124698095D01*
X126559809Y-124745714D01*
X126512190Y-124840952D01*
X126464571Y-125031428D01*
X126416952Y-125126666D01*
X126369333Y-125174285D01*
X126274095Y-125221904D01*
X126178857Y-125221904D01*
X126083619Y-125174285D01*
X126036000Y-125126666D01*
X125988380Y-125031428D01*
X125988380Y-124793333D01*
X126036000Y-124650476D01*
X126083619Y-124269523D02*
X126036000Y-124221904D01*
X125988380Y-124126666D01*
X125988380Y-123888571D01*
X126036000Y-123793333D01*
X126083619Y-123745714D01*
X126178857Y-123698095D01*
X126274095Y-123698095D01*
X126416952Y-123745714D01*
X126988380Y-124317142D01*
X126988380Y-123698095D01*
X179925161Y-125221904D02*
X179972780Y-125079047D01*
X179972780Y-124840952D01*
X179925161Y-124745714D01*
X179877542Y-124698095D01*
X179782304Y-124650476D01*
X179687066Y-124650476D01*
X179591828Y-124698095D01*
X179544209Y-124745714D01*
X179496590Y-124840952D01*
X179448971Y-125031428D01*
X179401352Y-125126666D01*
X179353733Y-125174285D01*
X179258495Y-125221904D01*
X179163257Y-125221904D01*
X179068019Y-125174285D01*
X179020400Y-125126666D01*
X178972780Y-125031428D01*
X178972780Y-124793333D01*
X179020400Y-124650476D01*
X178972780Y-124317142D02*
X178972780Y-123698095D01*
X179353733Y-124031428D01*
X179353733Y-123888571D01*
X179401352Y-123793333D01*
X179448971Y-123745714D01*
X179544209Y-123698095D01*
X179782304Y-123698095D01*
X179877542Y-123745714D01*
X179925161Y-123793333D01*
X179972780Y-123888571D01*
X179972780Y-124174285D01*
X179925161Y-124269523D01*
X179877542Y-124317142D01*
X236164380Y-126595095D02*
X235164380Y-126595095D01*
X235164380Y-126357000D01*
X235212000Y-126214142D01*
X235307238Y-126118904D01*
X235402476Y-126071285D01*
X235592952Y-126023666D01*
X235735809Y-126023666D01*
X235926285Y-126071285D01*
X236021523Y-126118904D01*
X236116761Y-126214142D01*
X236164380Y-126357000D01*
X236164380Y-126595095D01*
X236164380Y-125071285D02*
X236164380Y-125642714D01*
X236164380Y-125357000D02*
X235164380Y-125357000D01*
X235307238Y-125452238D01*
X235402476Y-125547476D01*
X235450095Y-125642714D01*
M02*
