G04 #@! TF.GenerationSoftware,KiCad,Pcbnew,(5.1.4)-1*
G04 #@! TF.CreationDate,2019-10-18T22:44:07-04:00*
G04 #@! TF.ProjectId,NixieClock,4e697869-6543-46c6-9f63-6b2e6b696361,rev?*
G04 #@! TF.SameCoordinates,Original*
G04 #@! TF.FileFunction,Copper,L1,Top*
G04 #@! TF.FilePolarity,Positive*
%FSLAX46Y46*%
G04 Gerber Fmt 4.6, Leading zero omitted, Abs format (unit mm)*
G04 Created by KiCad (PCBNEW (5.1.4)-1) date 2019-10-18 22:44:07*
%MOMM*%
%LPD*%
G04 APERTURE LIST*
%ADD10R,1.600000X1.600000*%
%ADD11O,1.600000X1.600000*%
%ADD12R,1.700000X1.700000*%
%ADD13O,1.700000X1.700000*%
%ADD14C,2.000000*%
%ADD15C,0.800000*%
%ADD16C,0.250000*%
%ADD17C,1.000000*%
G04 APERTURE END LIST*
D10*
X92628000Y-125476000D03*
D11*
X110408000Y-115316000D03*
X95168000Y-125476000D03*
X107868000Y-115316000D03*
X97708000Y-125476000D03*
X105328000Y-115316000D03*
X100248000Y-125476000D03*
X102788000Y-115316000D03*
X102788000Y-125476000D03*
X100248000Y-115316000D03*
X105328000Y-125476000D03*
X97708000Y-115316000D03*
X107868000Y-125476000D03*
X95168000Y-115316000D03*
X110408000Y-125476000D03*
X92628000Y-115316000D03*
D10*
X145628000Y-125476000D03*
D11*
X163408000Y-115316000D03*
X148168000Y-125476000D03*
X160868000Y-115316000D03*
X150708000Y-125476000D03*
X158328000Y-115316000D03*
X153248000Y-125476000D03*
X155788000Y-115316000D03*
X155788000Y-125476000D03*
X153248000Y-115316000D03*
X158328000Y-125476000D03*
X150708000Y-115316000D03*
X160868000Y-125476000D03*
X148168000Y-115316000D03*
X163408000Y-125476000D03*
X145628000Y-115316000D03*
D12*
X79520000Y-86360000D03*
D13*
X79520000Y-83820000D03*
X82060000Y-86360000D03*
X82060000Y-83820000D03*
X84600000Y-86360000D03*
X84600000Y-83820000D03*
X87140000Y-86360000D03*
X87140000Y-83820000D03*
X89680000Y-86360000D03*
X89680000Y-83820000D03*
X92220000Y-86360000D03*
X92220000Y-83820000D03*
X94760000Y-86360000D03*
X94760000Y-83820000D03*
X97300000Y-86360000D03*
X97300000Y-83820000D03*
D12*
X132520000Y-86360000D03*
D13*
X132520000Y-83820000D03*
X135060000Y-86360000D03*
X135060000Y-83820000D03*
X137600000Y-86360000D03*
X137600000Y-83820000D03*
X140140000Y-86360000D03*
X140140000Y-83820000D03*
X142680000Y-86360000D03*
X142680000Y-83820000D03*
X145220000Y-86360000D03*
X145220000Y-83820000D03*
X147760000Y-86360000D03*
X147760000Y-83820000D03*
X150300000Y-86360000D03*
X150300000Y-83820000D03*
X123335000Y-83820000D03*
X123335000Y-86360000D03*
X120795000Y-83820000D03*
X120795000Y-86360000D03*
X118255000Y-83820000D03*
X118255000Y-86360000D03*
X115715000Y-83820000D03*
X115715000Y-86360000D03*
X113175000Y-83820000D03*
X113175000Y-86360000D03*
X110635000Y-83820000D03*
X110635000Y-86360000D03*
X108095000Y-83820000D03*
X108095000Y-86360000D03*
X105555000Y-83820000D03*
D12*
X105555000Y-86360000D03*
D13*
X176335000Y-83820000D03*
X176335000Y-86360000D03*
X173795000Y-83820000D03*
X173795000Y-86360000D03*
X171255000Y-83820000D03*
X171255000Y-86360000D03*
X168715000Y-83820000D03*
X168715000Y-86360000D03*
X166175000Y-83820000D03*
X166175000Y-86360000D03*
X163635000Y-83820000D03*
X163635000Y-86360000D03*
X161095000Y-83820000D03*
X161095000Y-86360000D03*
X158555000Y-83820000D03*
D12*
X158555000Y-86360000D03*
D11*
X79520000Y-94996000D03*
X97300000Y-105156000D03*
X82060000Y-94996000D03*
X94760000Y-105156000D03*
X84600000Y-94996000D03*
X92220000Y-105156000D03*
X87140000Y-94996000D03*
X89680000Y-105156000D03*
X89680000Y-94996000D03*
X87140000Y-105156000D03*
X92220000Y-94996000D03*
X84600000Y-105156000D03*
X94760000Y-94996000D03*
X82060000Y-105156000D03*
X97300000Y-94996000D03*
D10*
X79520000Y-105156000D03*
D11*
X132520000Y-94996000D03*
X150300000Y-105156000D03*
X135060000Y-94996000D03*
X147760000Y-105156000D03*
X137600000Y-94996000D03*
X145220000Y-105156000D03*
X140140000Y-94996000D03*
X142680000Y-105156000D03*
X142680000Y-94996000D03*
X140140000Y-105156000D03*
X145220000Y-94996000D03*
X137600000Y-105156000D03*
X147760000Y-94996000D03*
X135060000Y-105156000D03*
X150300000Y-94996000D03*
D10*
X132520000Y-105156000D03*
X105555000Y-105156000D03*
D11*
X123335000Y-94996000D03*
X108095000Y-105156000D03*
X120795000Y-94996000D03*
X110635000Y-105156000D03*
X118255000Y-94996000D03*
X113175000Y-105156000D03*
X115715000Y-94996000D03*
X115715000Y-105156000D03*
X113175000Y-94996000D03*
X118255000Y-105156000D03*
X110635000Y-94996000D03*
X120795000Y-105156000D03*
X108095000Y-94996000D03*
X123335000Y-105156000D03*
X105555000Y-94996000D03*
D10*
X158555000Y-105156000D03*
D11*
X176335000Y-94996000D03*
X161095000Y-105156000D03*
X173795000Y-94996000D03*
X163635000Y-105156000D03*
X171255000Y-94996000D03*
X166175000Y-105156000D03*
X168715000Y-94996000D03*
X168715000Y-105156000D03*
X166175000Y-94996000D03*
X171255000Y-105156000D03*
X163635000Y-94996000D03*
X173795000Y-105156000D03*
X161095000Y-94996000D03*
X176335000Y-105156000D03*
X158555000Y-94996000D03*
D14*
X272288000Y-125476000D03*
X272288000Y-102616000D03*
X269748000Y-125476000D03*
X269748000Y-102616000D03*
X267208000Y-125476000D03*
X267208000Y-102616000D03*
X264668000Y-125476000D03*
X264668000Y-102616000D03*
X262128000Y-125476000D03*
X262128000Y-102616000D03*
X259588000Y-125476000D03*
X259588000Y-102616000D03*
X257048000Y-125476000D03*
X257048000Y-102616000D03*
X254508000Y-125476000D03*
X254508000Y-102616000D03*
X251968000Y-125476000D03*
X251968000Y-102616000D03*
X249428000Y-125476000D03*
X249428000Y-102616000D03*
X246888000Y-125476000D03*
X246888000Y-102616000D03*
X244348000Y-125476000D03*
X244348000Y-102616000D03*
X241808000Y-125476000D03*
X241808000Y-102616000D03*
X239268000Y-125476000D03*
X239268000Y-102616000D03*
X236728000Y-125476000D03*
X236728000Y-102616000D03*
D10*
X185520000Y-105156000D03*
D11*
X203300000Y-94996000D03*
X188060000Y-105156000D03*
X200760000Y-94996000D03*
X190600000Y-105156000D03*
X198220000Y-94996000D03*
X193140000Y-105156000D03*
X195680000Y-94996000D03*
X195680000Y-105156000D03*
X193140000Y-94996000D03*
X198220000Y-105156000D03*
X190600000Y-94996000D03*
X200760000Y-105156000D03*
X188060000Y-94996000D03*
X203300000Y-105156000D03*
X185520000Y-94996000D03*
X211555000Y-94996000D03*
X229335000Y-105156000D03*
X214095000Y-94996000D03*
X226795000Y-105156000D03*
X216635000Y-94996000D03*
X224255000Y-105156000D03*
X219175000Y-94996000D03*
X221715000Y-105156000D03*
X221715000Y-94996000D03*
X219175000Y-105156000D03*
X224255000Y-94996000D03*
X216635000Y-105156000D03*
X226795000Y-94996000D03*
X214095000Y-105156000D03*
X229335000Y-94996000D03*
D10*
X211555000Y-105156000D03*
D12*
X211555000Y-86360000D03*
D13*
X211555000Y-83820000D03*
X214095000Y-86360000D03*
X214095000Y-83820000D03*
X216635000Y-86360000D03*
X216635000Y-83820000D03*
X219175000Y-86360000D03*
X219175000Y-83820000D03*
X221715000Y-86360000D03*
X221715000Y-83820000D03*
X224255000Y-86360000D03*
X224255000Y-83820000D03*
X226795000Y-86360000D03*
X226795000Y-83820000D03*
X229335000Y-86360000D03*
X229335000Y-83820000D03*
X203300000Y-83820000D03*
X203300000Y-86360000D03*
X200760000Y-83820000D03*
X200760000Y-86360000D03*
X198220000Y-83820000D03*
X198220000Y-86360000D03*
X195680000Y-83820000D03*
X195680000Y-86360000D03*
X193140000Y-83820000D03*
X193140000Y-86360000D03*
X190600000Y-83820000D03*
X190600000Y-86360000D03*
X188060000Y-83820000D03*
X188060000Y-86360000D03*
X185520000Y-83820000D03*
D12*
X185520000Y-86360000D03*
D11*
X198628000Y-115316000D03*
X216408000Y-125476000D03*
X201168000Y-115316000D03*
X213868000Y-125476000D03*
X203708000Y-115316000D03*
X211328000Y-125476000D03*
X206248000Y-115316000D03*
X208788000Y-125476000D03*
X208788000Y-115316000D03*
X206248000Y-125476000D03*
X211328000Y-115316000D03*
X203708000Y-125476000D03*
X213868000Y-115316000D03*
X201168000Y-125476000D03*
X216408000Y-115316000D03*
D10*
X198628000Y-125476000D03*
D15*
X197104000Y-111760000D03*
X181610000Y-94996000D03*
X198374000Y-120396000D03*
X128610000Y-94996000D03*
X75610000Y-94996000D03*
X145374000Y-120396000D03*
X92374000Y-120396000D03*
X144104000Y-111760000D03*
X179070000Y-113284000D03*
X133858000Y-113284000D03*
X133858000Y-111760000D03*
X179070000Y-111760000D03*
D16*
X190600000Y-104748000D02*
X190600000Y-105156000D01*
X184470000Y-105156000D02*
X183388000Y-104074000D01*
X185520000Y-105156000D02*
X184470000Y-105156000D01*
X188060000Y-105156000D02*
X186537600Y-106678400D01*
X186537600Y-106678400D02*
X184351600Y-106678400D01*
X184351600Y-106678400D02*
X182473600Y-104800400D01*
X183896000Y-81280000D02*
X183896000Y-81280000D01*
X185520000Y-94996000D02*
X185520000Y-86360000D01*
X188060000Y-94996000D02*
X188060000Y-86360000D01*
X190600000Y-94996000D02*
X190600000Y-86360000D01*
X193140000Y-93864630D02*
X193140000Y-86360000D01*
X193140000Y-94996000D02*
X193140000Y-93864630D01*
X198220000Y-88900000D02*
X198220000Y-86360000D01*
X198220000Y-94996000D02*
X198220000Y-88900000D01*
X200760000Y-94996000D02*
X200760000Y-86360000D01*
X203300000Y-93864630D02*
X203300000Y-86360000D01*
X203300000Y-94996000D02*
X203300000Y-93864630D01*
X203300000Y-105156000D02*
X206475000Y-101981000D01*
X206475000Y-86995000D02*
X203300000Y-83820000D01*
X206475000Y-101981000D02*
X206475000Y-86995000D01*
X183388000Y-85952000D02*
X185520000Y-83820000D01*
X183388000Y-104074000D02*
X183388000Y-85952000D01*
X185520000Y-81280000D02*
X188060000Y-83820000D01*
X183896000Y-81280000D02*
X185520000Y-81280000D01*
X182473600Y-104800400D02*
X182473600Y-82702400D01*
X182473600Y-82702400D02*
X183896000Y-81280000D01*
X229335000Y-94996000D02*
X229335000Y-93864630D01*
X216635000Y-94996000D02*
X216635000Y-86360000D01*
X229335000Y-93864630D02*
X229335000Y-86360000D01*
X211555000Y-94996000D02*
X211555000Y-86360000D01*
X216635000Y-104748000D02*
X216635000Y-105156000D01*
X219175000Y-93864630D02*
X219175000Y-86360000D01*
X219175000Y-94996000D02*
X219175000Y-93864630D01*
X211555000Y-81280000D02*
X214095000Y-83820000D01*
X226795000Y-94996000D02*
X226795000Y-86360000D01*
X209423000Y-85952000D02*
X211555000Y-83820000D01*
X209423000Y-104074000D02*
X209423000Y-85952000D01*
X209931000Y-81280000D02*
X211555000Y-81280000D01*
X232510000Y-101981000D02*
X232510000Y-86995000D01*
X229335000Y-105156000D02*
X232510000Y-101981000D01*
X224255000Y-94996000D02*
X224255000Y-88900000D01*
X224255000Y-88900000D02*
X224255000Y-86360000D01*
X232510000Y-86995000D02*
X229335000Y-83820000D01*
X214095000Y-94996000D02*
X214095000Y-86360000D01*
X210505000Y-105156000D02*
X209423000Y-104074000D01*
X211555000Y-105156000D02*
X210505000Y-105156000D01*
X214095000Y-105156000D02*
X212572600Y-106678400D01*
X212572600Y-106678400D02*
X210386600Y-106678400D01*
X210386600Y-106678400D02*
X208508600Y-104800400D01*
X208508600Y-104800400D02*
X208508600Y-82702400D01*
X208508600Y-82702400D02*
X209931000Y-81280000D01*
X209931000Y-81280000D02*
X209931000Y-81280000D01*
X201168000Y-115316000D02*
X201168000Y-114184630D01*
X201168000Y-113184000D02*
X201168000Y-115316000D01*
X193140000Y-105156000D02*
X201168000Y-113184000D01*
X192786000Y-111760000D02*
X197104000Y-111760000D01*
X219175000Y-126211000D02*
X219175000Y-105156000D01*
X211328000Y-115316000D02*
X209105500Y-117538500D01*
X193675000Y-117538500D02*
X189420500Y-113284000D01*
X209105500Y-117538500D02*
X193675000Y-117538500D01*
D17*
X185293000Y-79324200D02*
X268452600Y-79324200D01*
D16*
X220011000Y-130476000D02*
X220044000Y-130476000D01*
D17*
X198628000Y-130476000D02*
X220011000Y-130476000D01*
D16*
X185293000Y-79324200D02*
X184581800Y-79324200D01*
X184581800Y-79324200D02*
X181610000Y-82296000D01*
X181610000Y-82296000D02*
X181610000Y-93472000D01*
X181610000Y-93472000D02*
X181610000Y-94996000D01*
X181610000Y-94996000D02*
X181610000Y-94996000D01*
X257349000Y-130476000D02*
X257349000Y-130255000D01*
D17*
X220011000Y-130476000D02*
X257349000Y-130476000D01*
X262128000Y-125476000D02*
X262128000Y-128016000D01*
X259668000Y-130476000D02*
X257349000Y-130476000D01*
X262128000Y-128016000D02*
X259668000Y-130476000D01*
X272288000Y-83159600D02*
X268452600Y-79324200D01*
X272288000Y-102616000D02*
X272288000Y-83159600D01*
D16*
X198628000Y-130476000D02*
X198294000Y-130476000D01*
X198294000Y-130476000D02*
X196342000Y-128524000D01*
X196342000Y-128524000D02*
X196342000Y-122428000D01*
X196342000Y-122428000D02*
X198374000Y-120396000D01*
X206248000Y-115316000D02*
X208343500Y-113220500D01*
X218186000Y-113792000D02*
X217614500Y-113220500D01*
X216408000Y-125476000D02*
X218186000Y-123698000D01*
X218186000Y-123698000D02*
X218186000Y-113792000D01*
X228600000Y-110744000D02*
X236728000Y-102616000D01*
X203708000Y-115316000D02*
X208280000Y-110744000D01*
X208280000Y-110744000D02*
X228600000Y-110744000D01*
X217614500Y-113220500D02*
X208343500Y-113220500D01*
X206248000Y-126607370D02*
X207910630Y-128270000D01*
X206248000Y-125476000D02*
X206248000Y-126607370D01*
X217116000Y-128270000D02*
X219175000Y-126211000D01*
X207910630Y-128270000D02*
X217116000Y-128270000D01*
X176335000Y-105156000D02*
X179510000Y-101981000D01*
X123335000Y-105156000D02*
X126510000Y-101981000D01*
X128610000Y-82296000D02*
X128610000Y-93472000D01*
X75610000Y-82296000D02*
X75610000Y-93472000D01*
X163635000Y-94996000D02*
X163635000Y-86360000D01*
X110635000Y-94996000D02*
X110635000Y-86360000D01*
X163408000Y-125476000D02*
X165186000Y-123698000D01*
X110408000Y-125476000D02*
X112186000Y-123698000D01*
X129473600Y-82702400D02*
X130896000Y-81280000D01*
X76473600Y-82702400D02*
X77896000Y-81280000D01*
X129473600Y-104800400D02*
X129473600Y-82702400D01*
X76473600Y-104800400D02*
X76473600Y-82702400D01*
X176335000Y-93864630D02*
X176335000Y-86360000D01*
X123335000Y-93864630D02*
X123335000Y-86360000D01*
X143342000Y-128524000D02*
X143342000Y-122428000D01*
X90342000Y-128524000D02*
X90342000Y-122428000D01*
X155508600Y-82702400D02*
X156931000Y-81280000D01*
X102508600Y-82702400D02*
X103931000Y-81280000D01*
X153248000Y-115316000D02*
X155343500Y-113220500D01*
X100248000Y-115316000D02*
X102343500Y-113220500D01*
X145220000Y-94996000D02*
X145220000Y-88900000D01*
X92220000Y-94996000D02*
X92220000Y-88900000D01*
X159572600Y-106678400D02*
X157386600Y-106678400D01*
X106572600Y-106678400D02*
X104386600Y-106678400D01*
X148168000Y-113184000D02*
X148168000Y-115316000D01*
X95168000Y-113184000D02*
X95168000Y-115316000D01*
X153248000Y-125476000D02*
X153248000Y-126607370D01*
X100248000Y-125476000D02*
X100248000Y-126607370D01*
X150300000Y-94996000D02*
X150300000Y-93864630D01*
X97300000Y-94996000D02*
X97300000Y-93864630D01*
X150300000Y-105156000D02*
X153475000Y-101981000D01*
X97300000Y-105156000D02*
X100475000Y-101981000D01*
X150300000Y-93864630D02*
X150300000Y-86360000D01*
X97300000Y-93864630D02*
X97300000Y-86360000D01*
X153475000Y-86995000D02*
X150300000Y-83820000D01*
X100475000Y-86995000D02*
X97300000Y-83820000D01*
X147760000Y-94996000D02*
X147760000Y-86360000D01*
X94760000Y-94996000D02*
X94760000Y-86360000D01*
X157386600Y-106678400D02*
X155508600Y-104800400D01*
X104386600Y-106678400D02*
X102508600Y-104800400D01*
X131470000Y-105156000D02*
X130388000Y-104074000D01*
X78470000Y-105156000D02*
X77388000Y-104074000D01*
X156423000Y-104074000D02*
X156423000Y-85952000D01*
X103423000Y-104074000D02*
X103423000Y-85952000D01*
X157505000Y-105156000D02*
X156423000Y-104074000D01*
X104505000Y-105156000D02*
X103423000Y-104074000D01*
X171255000Y-94996000D02*
X171255000Y-88900000D01*
X118255000Y-94996000D02*
X118255000Y-88900000D01*
X131581800Y-79324200D02*
X128610000Y-82296000D01*
X78581800Y-79324200D02*
X75610000Y-82296000D01*
X158328000Y-115316000D02*
X156105500Y-117538500D01*
X156931000Y-81280000D02*
X158555000Y-81280000D01*
X103931000Y-81280000D02*
X105555000Y-81280000D01*
X130388000Y-104074000D02*
X130388000Y-85952000D01*
X77388000Y-104074000D02*
X77388000Y-85952000D01*
X163635000Y-104748000D02*
X163635000Y-105156000D01*
X110635000Y-104748000D02*
X110635000Y-105156000D01*
X165186000Y-123698000D02*
X165186000Y-113792000D01*
X112186000Y-123698000D02*
X112186000Y-113792000D01*
X132520000Y-81280000D02*
X135060000Y-83820000D01*
X79520000Y-81280000D02*
X82060000Y-83820000D01*
X158555000Y-81280000D02*
X161095000Y-83820000D01*
X105555000Y-81280000D02*
X108095000Y-83820000D01*
X166175000Y-93864630D02*
X166175000Y-86360000D01*
X113175000Y-93864630D02*
X113175000Y-86360000D01*
X137600000Y-104748000D02*
X137600000Y-105156000D01*
X84600000Y-104748000D02*
X84600000Y-105156000D01*
X137600000Y-94996000D02*
X137600000Y-86360000D01*
X84600000Y-94996000D02*
X84600000Y-86360000D01*
X132520000Y-94996000D02*
X132520000Y-86360000D01*
X79520000Y-94996000D02*
X79520000Y-86360000D01*
X135060000Y-105156000D02*
X133537600Y-106678400D01*
X82060000Y-105156000D02*
X80537600Y-106678400D01*
X130388000Y-85952000D02*
X132520000Y-83820000D01*
X77388000Y-85952000D02*
X79520000Y-83820000D01*
X135060000Y-94996000D02*
X135060000Y-86360000D01*
X82060000Y-94996000D02*
X82060000Y-86360000D01*
X140140000Y-94996000D02*
X140140000Y-93864630D01*
X87140000Y-94996000D02*
X87140000Y-93864630D01*
X133537600Y-106678400D02*
X131351600Y-106678400D01*
X80537600Y-106678400D02*
X78351600Y-106678400D01*
X131351600Y-106678400D02*
X129473600Y-104800400D01*
X78351600Y-106678400D02*
X76473600Y-104800400D01*
X132520000Y-105156000D02*
X131470000Y-105156000D01*
X79520000Y-105156000D02*
X78470000Y-105156000D01*
X130896000Y-81280000D02*
X130896000Y-81280000D01*
X77896000Y-81280000D02*
X77896000Y-81280000D01*
X145220000Y-88900000D02*
X145220000Y-86360000D01*
X92220000Y-88900000D02*
X92220000Y-86360000D01*
X140140000Y-93864630D02*
X140140000Y-86360000D01*
X87140000Y-93864630D02*
X87140000Y-86360000D01*
X153475000Y-101981000D02*
X153475000Y-86995000D01*
X100475000Y-101981000D02*
X100475000Y-86995000D01*
X166175000Y-126211000D02*
X166175000Y-105156000D01*
X113175000Y-126211000D02*
X113175000Y-105156000D01*
X155508600Y-104800400D02*
X155508600Y-82702400D01*
X102508600Y-104800400D02*
X102508600Y-82702400D01*
X171255000Y-88900000D02*
X171255000Y-86360000D01*
X118255000Y-88900000D02*
X118255000Y-86360000D01*
X140140000Y-105156000D02*
X148168000Y-113184000D01*
X87140000Y-105156000D02*
X95168000Y-113184000D01*
X166175000Y-94996000D02*
X166175000Y-93864630D01*
X113175000Y-94996000D02*
X113175000Y-93864630D01*
X164614500Y-113220500D02*
X155343500Y-113220500D01*
X111614500Y-113220500D02*
X102343500Y-113220500D01*
X130896000Y-81280000D02*
X132520000Y-81280000D01*
X77896000Y-81280000D02*
X79520000Y-81280000D01*
X156105500Y-117538500D02*
X140675000Y-117538500D01*
X128610000Y-93472000D02*
X128610000Y-94996000D01*
X75610000Y-93472000D02*
X75610000Y-94996000D01*
X128610000Y-94996000D02*
X128610000Y-94996000D01*
X75610000Y-94996000D02*
X75610000Y-94996000D01*
X145294000Y-130476000D02*
X143342000Y-128524000D01*
X92294000Y-130476000D02*
X90342000Y-128524000D01*
X139786000Y-111760000D02*
X144104000Y-111760000D01*
X150708000Y-115316000D02*
X155280000Y-110744000D01*
X164116000Y-128270000D02*
X166175000Y-126211000D01*
X111116000Y-128270000D02*
X113175000Y-126211000D01*
X154910630Y-128270000D02*
X164116000Y-128270000D01*
X101910630Y-128270000D02*
X111116000Y-128270000D01*
X158555000Y-105156000D02*
X157505000Y-105156000D01*
X105555000Y-105156000D02*
X104505000Y-105156000D01*
X156931000Y-81280000D02*
X156931000Y-81280000D01*
X103931000Y-81280000D02*
X103931000Y-81280000D01*
X148168000Y-115316000D02*
X148168000Y-114184630D01*
X95168000Y-115316000D02*
X95168000Y-114184630D01*
X165186000Y-113792000D02*
X164614500Y-113220500D01*
X112186000Y-113792000D02*
X111614500Y-113220500D01*
X153248000Y-126607370D02*
X154910630Y-128270000D01*
X100248000Y-126607370D02*
X101910630Y-128270000D01*
X179510000Y-86995000D02*
X176335000Y-83820000D01*
X126510000Y-86995000D02*
X123335000Y-83820000D01*
X161095000Y-94996000D02*
X161095000Y-86360000D01*
X108095000Y-94996000D02*
X108095000Y-86360000D01*
X140675000Y-117538500D02*
X136420500Y-113284000D01*
X156423000Y-85952000D02*
X158555000Y-83820000D01*
X103423000Y-85952000D02*
X105555000Y-83820000D01*
X161095000Y-105156000D02*
X159572600Y-106678400D01*
X108095000Y-105156000D02*
X106572600Y-106678400D01*
X173795000Y-94996000D02*
X173795000Y-86360000D01*
X120795000Y-94996000D02*
X120795000Y-86360000D01*
X179510000Y-101981000D02*
X179510000Y-86995000D01*
X126510000Y-101981000D02*
X126510000Y-86995000D01*
X176335000Y-94996000D02*
X176335000Y-93864630D01*
X123335000Y-94996000D02*
X123335000Y-93864630D01*
X158555000Y-94996000D02*
X158555000Y-86360000D01*
X105555000Y-94996000D02*
X105555000Y-86360000D01*
X143342000Y-122428000D02*
X145374000Y-120396000D01*
X90342000Y-122428000D02*
X92374000Y-120396000D01*
D17*
X185293000Y-79324200D02*
X78581800Y-79324200D01*
X198628000Y-130476000D02*
X92294000Y-130476000D01*
D16*
X178816000Y-119126000D02*
X170434000Y-110744000D01*
X215011000Y-119126000D02*
X178816000Y-119126000D01*
X216408000Y-117729000D02*
X215011000Y-119126000D01*
X216408000Y-115316000D02*
X216408000Y-117729000D01*
X155280000Y-110744000D02*
X170434000Y-110744000D01*
X189420500Y-113284000D02*
X179070000Y-113284000D01*
X133858000Y-111760000D02*
X139786000Y-111760000D01*
X136420500Y-113284000D02*
X133858000Y-113284000D01*
X102280000Y-110744000D02*
X97708000Y-115316000D01*
X122600000Y-110744000D02*
X102280000Y-110744000D01*
X130982000Y-119126000D02*
X122600000Y-110744000D01*
X162011000Y-119126000D02*
X130982000Y-119126000D01*
X163408000Y-115316000D02*
X163408000Y-117729000D01*
X163408000Y-117729000D02*
X162011000Y-119126000D01*
X192786000Y-111760000D02*
X179070000Y-111760000D01*
M02*
