G04 #@! TF.GenerationSoftware,KiCad,Pcbnew,(5.1.4)-1*
G04 #@! TF.CreationDate,2019-10-18T22:44:07-04:00*
G04 #@! TF.ProjectId,NixieClock,4e697869-6543-46c6-9f63-6b2e6b696361,rev?*
G04 #@! TF.SameCoordinates,Original*
G04 #@! TF.FileFunction,Copper,L2,Bot*
G04 #@! TF.FilePolarity,Positive*
%FSLAX46Y46*%
G04 Gerber Fmt 4.6, Leading zero omitted, Abs format (unit mm)*
G04 Created by KiCad (PCBNEW (5.1.4)-1) date 2019-10-18 22:44:07*
%MOMM*%
%LPD*%
G04 APERTURE LIST*
%ADD10R,1.600000X1.600000*%
%ADD11O,1.600000X1.600000*%
%ADD12R,1.700000X1.700000*%
%ADD13O,1.700000X1.700000*%
%ADD14C,2.000000*%
%ADD15C,0.800000*%
%ADD16C,0.250000*%
%ADD17C,1.000000*%
G04 APERTURE END LIST*
D10*
X92628000Y-125476000D03*
D11*
X110408000Y-115316000D03*
X95168000Y-125476000D03*
X107868000Y-115316000D03*
X97708000Y-125476000D03*
X105328000Y-115316000D03*
X100248000Y-125476000D03*
X102788000Y-115316000D03*
X102788000Y-125476000D03*
X100248000Y-115316000D03*
X105328000Y-125476000D03*
X97708000Y-115316000D03*
X107868000Y-125476000D03*
X95168000Y-115316000D03*
X110408000Y-125476000D03*
X92628000Y-115316000D03*
D10*
X145628000Y-125476000D03*
D11*
X163408000Y-115316000D03*
X148168000Y-125476000D03*
X160868000Y-115316000D03*
X150708000Y-125476000D03*
X158328000Y-115316000D03*
X153248000Y-125476000D03*
X155788000Y-115316000D03*
X155788000Y-125476000D03*
X153248000Y-115316000D03*
X158328000Y-125476000D03*
X150708000Y-115316000D03*
X160868000Y-125476000D03*
X148168000Y-115316000D03*
X163408000Y-125476000D03*
X145628000Y-115316000D03*
D12*
X79520000Y-86360000D03*
D13*
X79520000Y-83820000D03*
X82060000Y-86360000D03*
X82060000Y-83820000D03*
X84600000Y-86360000D03*
X84600000Y-83820000D03*
X87140000Y-86360000D03*
X87140000Y-83820000D03*
X89680000Y-86360000D03*
X89680000Y-83820000D03*
X92220000Y-86360000D03*
X92220000Y-83820000D03*
X94760000Y-86360000D03*
X94760000Y-83820000D03*
X97300000Y-86360000D03*
X97300000Y-83820000D03*
D12*
X132520000Y-86360000D03*
D13*
X132520000Y-83820000D03*
X135060000Y-86360000D03*
X135060000Y-83820000D03*
X137600000Y-86360000D03*
X137600000Y-83820000D03*
X140140000Y-86360000D03*
X140140000Y-83820000D03*
X142680000Y-86360000D03*
X142680000Y-83820000D03*
X145220000Y-86360000D03*
X145220000Y-83820000D03*
X147760000Y-86360000D03*
X147760000Y-83820000D03*
X150300000Y-86360000D03*
X150300000Y-83820000D03*
X123335000Y-83820000D03*
X123335000Y-86360000D03*
X120795000Y-83820000D03*
X120795000Y-86360000D03*
X118255000Y-83820000D03*
X118255000Y-86360000D03*
X115715000Y-83820000D03*
X115715000Y-86360000D03*
X113175000Y-83820000D03*
X113175000Y-86360000D03*
X110635000Y-83820000D03*
X110635000Y-86360000D03*
X108095000Y-83820000D03*
X108095000Y-86360000D03*
X105555000Y-83820000D03*
D12*
X105555000Y-86360000D03*
D13*
X176335000Y-83820000D03*
X176335000Y-86360000D03*
X173795000Y-83820000D03*
X173795000Y-86360000D03*
X171255000Y-83820000D03*
X171255000Y-86360000D03*
X168715000Y-83820000D03*
X168715000Y-86360000D03*
X166175000Y-83820000D03*
X166175000Y-86360000D03*
X163635000Y-83820000D03*
X163635000Y-86360000D03*
X161095000Y-83820000D03*
X161095000Y-86360000D03*
X158555000Y-83820000D03*
D12*
X158555000Y-86360000D03*
D11*
X79520000Y-94996000D03*
X97300000Y-105156000D03*
X82060000Y-94996000D03*
X94760000Y-105156000D03*
X84600000Y-94996000D03*
X92220000Y-105156000D03*
X87140000Y-94996000D03*
X89680000Y-105156000D03*
X89680000Y-94996000D03*
X87140000Y-105156000D03*
X92220000Y-94996000D03*
X84600000Y-105156000D03*
X94760000Y-94996000D03*
X82060000Y-105156000D03*
X97300000Y-94996000D03*
D10*
X79520000Y-105156000D03*
D11*
X132520000Y-94996000D03*
X150300000Y-105156000D03*
X135060000Y-94996000D03*
X147760000Y-105156000D03*
X137600000Y-94996000D03*
X145220000Y-105156000D03*
X140140000Y-94996000D03*
X142680000Y-105156000D03*
X142680000Y-94996000D03*
X140140000Y-105156000D03*
X145220000Y-94996000D03*
X137600000Y-105156000D03*
X147760000Y-94996000D03*
X135060000Y-105156000D03*
X150300000Y-94996000D03*
D10*
X132520000Y-105156000D03*
X105555000Y-105156000D03*
D11*
X123335000Y-94996000D03*
X108095000Y-105156000D03*
X120795000Y-94996000D03*
X110635000Y-105156000D03*
X118255000Y-94996000D03*
X113175000Y-105156000D03*
X115715000Y-94996000D03*
X115715000Y-105156000D03*
X113175000Y-94996000D03*
X118255000Y-105156000D03*
X110635000Y-94996000D03*
X120795000Y-105156000D03*
X108095000Y-94996000D03*
X123335000Y-105156000D03*
X105555000Y-94996000D03*
D10*
X158555000Y-105156000D03*
D11*
X176335000Y-94996000D03*
X161095000Y-105156000D03*
X173795000Y-94996000D03*
X163635000Y-105156000D03*
X171255000Y-94996000D03*
X166175000Y-105156000D03*
X168715000Y-94996000D03*
X168715000Y-105156000D03*
X166175000Y-94996000D03*
X171255000Y-105156000D03*
X163635000Y-94996000D03*
X173795000Y-105156000D03*
X161095000Y-94996000D03*
X176335000Y-105156000D03*
X158555000Y-94996000D03*
D14*
X272288000Y-125476000D03*
X272288000Y-102616000D03*
X269748000Y-125476000D03*
X269748000Y-102616000D03*
X267208000Y-125476000D03*
X267208000Y-102616000D03*
X264668000Y-125476000D03*
X264668000Y-102616000D03*
X262128000Y-125476000D03*
X262128000Y-102616000D03*
X259588000Y-125476000D03*
X259588000Y-102616000D03*
X257048000Y-125476000D03*
X257048000Y-102616000D03*
X254508000Y-125476000D03*
X254508000Y-102616000D03*
X251968000Y-125476000D03*
X251968000Y-102616000D03*
X249428000Y-125476000D03*
X249428000Y-102616000D03*
X246888000Y-125476000D03*
X246888000Y-102616000D03*
X244348000Y-125476000D03*
X244348000Y-102616000D03*
X241808000Y-125476000D03*
X241808000Y-102616000D03*
X239268000Y-125476000D03*
X239268000Y-102616000D03*
X236728000Y-125476000D03*
X236728000Y-102616000D03*
D10*
X185520000Y-105156000D03*
D11*
X203300000Y-94996000D03*
X188060000Y-105156000D03*
X200760000Y-94996000D03*
X190600000Y-105156000D03*
X198220000Y-94996000D03*
X193140000Y-105156000D03*
X195680000Y-94996000D03*
X195680000Y-105156000D03*
X193140000Y-94996000D03*
X198220000Y-105156000D03*
X190600000Y-94996000D03*
X200760000Y-105156000D03*
X188060000Y-94996000D03*
X203300000Y-105156000D03*
X185520000Y-94996000D03*
X211555000Y-94996000D03*
X229335000Y-105156000D03*
X214095000Y-94996000D03*
X226795000Y-105156000D03*
X216635000Y-94996000D03*
X224255000Y-105156000D03*
X219175000Y-94996000D03*
X221715000Y-105156000D03*
X221715000Y-94996000D03*
X219175000Y-105156000D03*
X224255000Y-94996000D03*
X216635000Y-105156000D03*
X226795000Y-94996000D03*
X214095000Y-105156000D03*
X229335000Y-94996000D03*
D10*
X211555000Y-105156000D03*
D12*
X211555000Y-86360000D03*
D13*
X211555000Y-83820000D03*
X214095000Y-86360000D03*
X214095000Y-83820000D03*
X216635000Y-86360000D03*
X216635000Y-83820000D03*
X219175000Y-86360000D03*
X219175000Y-83820000D03*
X221715000Y-86360000D03*
X221715000Y-83820000D03*
X224255000Y-86360000D03*
X224255000Y-83820000D03*
X226795000Y-86360000D03*
X226795000Y-83820000D03*
X229335000Y-86360000D03*
X229335000Y-83820000D03*
X203300000Y-83820000D03*
X203300000Y-86360000D03*
X200760000Y-83820000D03*
X200760000Y-86360000D03*
X198220000Y-83820000D03*
X198220000Y-86360000D03*
X195680000Y-83820000D03*
X195680000Y-86360000D03*
X193140000Y-83820000D03*
X193140000Y-86360000D03*
X190600000Y-83820000D03*
X190600000Y-86360000D03*
X188060000Y-83820000D03*
X188060000Y-86360000D03*
X185520000Y-83820000D03*
D12*
X185520000Y-86360000D03*
D11*
X198628000Y-115316000D03*
X216408000Y-125476000D03*
X201168000Y-115316000D03*
X213868000Y-125476000D03*
X203708000Y-115316000D03*
X211328000Y-125476000D03*
X206248000Y-115316000D03*
X208788000Y-125476000D03*
X208788000Y-115316000D03*
X206248000Y-125476000D03*
X211328000Y-115316000D03*
X203708000Y-125476000D03*
X213868000Y-115316000D03*
X201168000Y-125476000D03*
X216408000Y-115316000D03*
D10*
X198628000Y-125476000D03*
D15*
X197104000Y-111760000D03*
X181610000Y-94996000D03*
X198374000Y-120396000D03*
X128610000Y-94996000D03*
X75610000Y-94996000D03*
X145374000Y-120396000D03*
X92374000Y-120396000D03*
X144104000Y-111760000D03*
X179070000Y-113284000D03*
X133858000Y-113284000D03*
X133858000Y-111760000D03*
X179070000Y-111760000D03*
D16*
X198628000Y-124426000D02*
X195453000Y-121251000D01*
X198628000Y-125476000D02*
X198628000Y-124426000D01*
X195453000Y-110463000D02*
X200760000Y-105156000D01*
X195453000Y-121251000D02*
X195453000Y-110463000D01*
X201168000Y-125476000D02*
X201168000Y-126746000D01*
X201168000Y-126746000D02*
X200406000Y-127508000D01*
X200406000Y-127508000D02*
X197675500Y-127508000D01*
X197675500Y-127508000D02*
X193675000Y-123507500D01*
X193675000Y-109701000D02*
X198220000Y-105156000D01*
X193675000Y-123507500D02*
X193675000Y-109701000D01*
X203708000Y-125476000D02*
X203708000Y-127889000D01*
X203708000Y-127889000D02*
X202565000Y-129032000D01*
X202565000Y-129032000D02*
X196596000Y-129032000D01*
X190600000Y-123036000D02*
X190600000Y-105156000D01*
X196596000Y-129032000D02*
X190600000Y-123036000D01*
X208788000Y-113157000D02*
X208788000Y-115316000D01*
X197104000Y-111760000D02*
X207391000Y-111760000D01*
X207391000Y-111760000D02*
X208788000Y-113157000D01*
X208788000Y-113157000D02*
X210121500Y-111823500D01*
X210121500Y-111823500D02*
X210185000Y-111760000D01*
X181610000Y-94996000D02*
X181610000Y-96774000D01*
X181610000Y-96774000D02*
X188341000Y-103505000D01*
X194029000Y-103505000D02*
X195680000Y-105156000D01*
X188341000Y-103505000D02*
X194029000Y-103505000D01*
X220064000Y-103505000D02*
X221715000Y-105156000D01*
X194029000Y-103505000D02*
X220064000Y-103505000D01*
D17*
X269748000Y-125476000D02*
X269748000Y-127635000D01*
X269748000Y-127635000D02*
X269748000Y-127889000D01*
X269748000Y-127889000D02*
X262890000Y-134747000D01*
D16*
X216408000Y-132969000D02*
X218186000Y-134747000D01*
X216408000Y-125476000D02*
X216408000Y-132969000D01*
D17*
X262890000Y-134747000D02*
X218186000Y-134747000D01*
X218186000Y-134747000D02*
X194310000Y-134747000D01*
D16*
X198374000Y-115570000D02*
X198628000Y-115316000D01*
X198374000Y-120396000D02*
X198374000Y-115570000D01*
X213868000Y-115316000D02*
X210820000Y-118364000D01*
X201676000Y-118364000D02*
X198628000Y-115316000D01*
X210820000Y-118364000D02*
X201676000Y-118364000D01*
X230124000Y-111760000D02*
X229870000Y-111760000D01*
X239268000Y-102616000D02*
X230124000Y-111760000D01*
X210185000Y-111760000D02*
X229870000Y-111760000D01*
X241808000Y-102616000D02*
X231140000Y-113284000D01*
X213360000Y-113284000D02*
X211328000Y-115316000D01*
X231140000Y-113284000D02*
X213360000Y-113284000D01*
D17*
X251968000Y-102616000D02*
X251968000Y-97536000D01*
X251968000Y-97536000D02*
X245364000Y-90932000D01*
D16*
X195680000Y-94996000D02*
X191616000Y-90932000D01*
X221715000Y-94996000D02*
X217651000Y-90932000D01*
X226287000Y-90932000D02*
X226568000Y-90932000D01*
X221715000Y-86360000D02*
X226287000Y-90932000D01*
D17*
X245364000Y-90932000D02*
X226568000Y-90932000D01*
D16*
X195680000Y-86360000D02*
X200252000Y-90932000D01*
X147406000Y-127508000D02*
X144675500Y-127508000D01*
X94406000Y-127508000D02*
X91675500Y-127508000D01*
X142680000Y-86360000D02*
X147252000Y-90932000D01*
X89680000Y-86360000D02*
X94252000Y-90932000D01*
X128610000Y-94996000D02*
X128610000Y-96774000D01*
X75610000Y-94996000D02*
X75610000Y-96774000D01*
X145628000Y-125476000D02*
X145628000Y-124426000D01*
X92628000Y-125476000D02*
X92628000Y-124426000D01*
X148676000Y-118364000D02*
X145628000Y-115316000D01*
X95676000Y-118364000D02*
X92628000Y-115316000D01*
X142453000Y-121251000D02*
X142453000Y-110463000D01*
X89453000Y-121251000D02*
X89453000Y-110463000D01*
X148168000Y-126746000D02*
X147406000Y-127508000D01*
X95168000Y-126746000D02*
X94406000Y-127508000D01*
X144675500Y-127508000D02*
X140675000Y-123507500D01*
X91675500Y-127508000D02*
X87675000Y-123507500D01*
X128610000Y-96774000D02*
X135341000Y-103505000D01*
X75610000Y-96774000D02*
X82341000Y-103505000D01*
X140675000Y-123507500D02*
X140675000Y-109701000D01*
X87675000Y-123507500D02*
X87675000Y-109701000D01*
X135341000Y-103505000D02*
X141029000Y-103505000D01*
X82341000Y-103505000D02*
X88029000Y-103505000D01*
X160868000Y-115316000D02*
X157820000Y-118364000D01*
X107868000Y-115316000D02*
X104820000Y-118364000D01*
X168715000Y-94996000D02*
X164651000Y-90932000D01*
X115715000Y-94996000D02*
X111651000Y-90932000D01*
X144104000Y-111760000D02*
X154391000Y-111760000D01*
X148168000Y-125476000D02*
X148168000Y-126746000D01*
X95168000Y-125476000D02*
X95168000Y-126746000D01*
X150708000Y-127889000D02*
X149565000Y-129032000D01*
X97708000Y-127889000D02*
X96565000Y-129032000D01*
X141029000Y-103505000D02*
X167064000Y-103505000D01*
X88029000Y-103505000D02*
X114064000Y-103505000D01*
X155788000Y-113157000D02*
X157121500Y-111823500D01*
X157121500Y-111823500D02*
X157185000Y-111760000D01*
X142453000Y-110463000D02*
X147760000Y-105156000D01*
X89453000Y-110463000D02*
X94760000Y-105156000D01*
X140675000Y-109701000D02*
X145220000Y-105156000D01*
X87675000Y-109701000D02*
X92220000Y-105156000D01*
X150708000Y-125476000D02*
X150708000Y-127889000D01*
X97708000Y-125476000D02*
X97708000Y-127889000D01*
X137600000Y-123036000D02*
X137600000Y-105156000D01*
X84600000Y-123036000D02*
X84600000Y-105156000D01*
X157185000Y-111760000D02*
X176870000Y-111760000D01*
X145628000Y-124426000D02*
X142453000Y-121251000D01*
X92628000Y-124426000D02*
X89453000Y-121251000D01*
X125140000Y-113284000D02*
X107360000Y-113284000D01*
X177124000Y-111760000D02*
X176870000Y-111760000D01*
X107360000Y-113284000D02*
X105328000Y-115316000D01*
X145374000Y-115570000D02*
X145628000Y-115316000D01*
X92374000Y-115570000D02*
X92628000Y-115316000D01*
X155788000Y-113157000D02*
X155788000Y-115316000D01*
X154391000Y-111760000D02*
X155788000Y-113157000D01*
X149565000Y-129032000D02*
X143596000Y-129032000D01*
X96565000Y-129032000D02*
X90596000Y-129032000D01*
X142680000Y-94996000D02*
X138616000Y-90932000D01*
X89680000Y-94996000D02*
X85616000Y-90932000D01*
X157820000Y-118364000D02*
X148676000Y-118364000D01*
X104820000Y-118364000D02*
X95676000Y-118364000D01*
X143596000Y-129032000D02*
X137600000Y-123036000D01*
X90596000Y-129032000D02*
X84600000Y-123036000D01*
X141029000Y-103505000D02*
X142680000Y-105156000D01*
X88029000Y-103505000D02*
X89680000Y-105156000D01*
X168715000Y-86360000D02*
X173287000Y-90932000D01*
X115715000Y-86360000D02*
X120287000Y-90932000D01*
X167064000Y-103505000D02*
X168715000Y-105156000D01*
X114064000Y-103505000D02*
X115715000Y-105156000D01*
X145374000Y-120396000D02*
X145374000Y-115570000D01*
X92374000Y-120396000D02*
X92374000Y-115570000D01*
X110408000Y-133268000D02*
X111887000Y-134747000D01*
X110408000Y-125476000D02*
X110408000Y-133268000D01*
D17*
X194310000Y-134747000D02*
X165227000Y-134747000D01*
X165227000Y-134747000D02*
X111887000Y-134747000D01*
D16*
X165100000Y-134747000D02*
X165227000Y-134747000D01*
X163408000Y-125476000D02*
X163408000Y-133055000D01*
X163408000Y-133055000D02*
X165100000Y-134747000D01*
X160360000Y-113284000D02*
X158328000Y-115316000D01*
X179070000Y-113284000D02*
X160360000Y-113284000D01*
D17*
X226568000Y-90932000D02*
X85616000Y-90932000D01*
D16*
X102788000Y-113157000D02*
X102788000Y-115316000D01*
X125222000Y-111760000D02*
X104185000Y-111760000D01*
X104185000Y-111760000D02*
X102788000Y-113157000D01*
X125140000Y-113284000D02*
X125222000Y-113284000D01*
X125222000Y-111760000D02*
X133858000Y-111760000D01*
X125140000Y-113284000D02*
X133858000Y-113284000D01*
X179070000Y-111760000D02*
X177546000Y-111760000D01*
X177673000Y-111760000D02*
X177546000Y-111760000D01*
X177546000Y-111760000D02*
X176870000Y-111760000D01*
M02*
